<?xml version="1.0" encoding="UTF-8"?>
<svg id="_印刷データー" data-name="印刷データー" xmlns="http://www.w3.org/2000/svg" viewBox="0 0 731.339 191.339">
  <defs>
    <style>
      .cls-1 {
        stroke-linecap: round;
        stroke-linejoin: round;
      }

      .cls-1, .cls-2 {
        fill: none;
        stroke: #231815;
        stroke-width: .992px;
      }

      .cls-2 {
        stroke-miterlimit: 10;
      }
    </style>
  </defs>
  <g id="_トッププレート" data-name="トッププレート">
    <g>
      <g id="_ネジ穴_サイドプレート" data-name="ネジ穴_サイドプレート">
        <circle class="cls-1" cx="7.583" cy="7.583" r="2.835"/>
        <circle class="cls-1" cx="7.583" cy="183.756" r="2.835"/>
        <circle class="cls-1" cx="485.031" cy="7.583" r="2.835"/>
        <circle class="cls-1" cx="723.756" cy="183.756" r="2.835"/>
        <circle class="cls-1" cx="723.756" cy="7.583" r="2.835"/>
        <circle class="cls-1" cx="246.307" cy="7.583" r="2.835"/>
        <circle class="cls-1" cx="485.031" cy="183.756" r="2.835"/>
        <circle class="cls-1" cx="246.307" cy="183.756" r="2.835"/>
        <circle class="cls-1" cx="7.583" cy="7.583" r="2.835"/>
        <circle class="cls-1" cx="7.583" cy="59.857" r="2.835"/>
        <circle class="cls-1" cx="7.583" cy="130.15" r="2.835"/>
      </g>
      <rect id="PCB外形線_10mm" data-name="PCB外形線+10mm" class="cls-1" x=".496" y=".496" width="730.346" height="190.346" rx="7.087" ry="7.087"/>
      <g id="_キースイッチ穴" data-name="キースイッチ穴">
        <path class="cls-2" d="M142.505,61.563h-39.679V21.884h39.679V61.563Z"/>
        <path class="cls-2" d="M196.505,61.563h-39.679V21.884h39.679V61.563Z"/>
        <path class="cls-2" d="M250.505,61.563h-39.679V21.884h39.679V61.563Z"/>
        <path class="cls-2" d="M304.505,61.563h-39.679V21.884h39.679V61.563Z"/>
        <path class="cls-2" d="M358.505,61.563h-39.679V21.884h39.679V61.563Z"/>
        <path class="cls-2" d="M493.505,61.563h-39.679V21.884h39.679V61.563Z"/>
        <path class="cls-2" d="M547.505,61.563h-39.679V21.884h39.679V61.563Z"/>
        <path class="cls-2" d="M601.505,61.563h-39.679V21.884h39.679V61.563Z"/>
        <path class="cls-2" d="M655.505,61.563h-39.679V21.884h39.679V61.563Z"/>
        <path class="cls-2" d="M709.505,61.563h-39.679V21.884h39.679V61.563Z"/>
        <path class="cls-2" d="M156.005,115.563h-39.679v-39.679h39.679v39.679Z"/>
        <path class="cls-2" d="M210.005,115.563h-39.679v-39.679h39.679v39.679Z"/>
        <path class="cls-2" d="M264.005,115.563h-39.679v-39.679h39.679v39.679Z"/>
        <path class="cls-2" d="M318.005,115.563h-39.679v-39.679h39.679v39.679Z"/>
        <path class="cls-2" d="M372.012,115.563h-39.686v-39.679h39.686v39.679Z"/>
        <path class="cls-2" d="M493.505,115.563h-39.679v-39.679h39.679v39.679Z"/>
        <path class="cls-2" d="M547.505,115.563h-39.679v-39.679h39.679v39.679Z"/>
        <path class="cls-2" d="M601.505,115.563h-39.679v-39.679h39.679v39.679Z"/>
        <path class="cls-2" d="M655.505,115.563h-39.679v-39.679h39.679v39.679Z"/>
        <path class="cls-2" d="M709.505,115.563h-39.679v-39.679h39.679v39.679Z"/>
        <path class="cls-2" d="M129.826,129.884h39.679v39.679h-39.679v-39.679Z"/>
        <path class="cls-2" d="M183.826,129.884h39.679v39.679h-39.679v-39.679Z"/>
        <path class="cls-2" d="M237.826,129.884h39.679v39.679h-39.679v-39.679Z"/>
        <path class="cls-2" d="M291.826,129.884h39.679v39.679h-39.679v-39.679Z"/>
        <path class="cls-2" d="M345.826,129.884h39.679v39.679h-39.679v-39.679Z"/>
        <path class="cls-2" d="M453.826,129.884h39.679v39.679h-39.679v-39.679Z"/>
        <path class="cls-2" d="M507.826,129.884h39.679v39.679h-39.679v-39.679Z"/>
        <path class="cls-2" d="M561.826,129.884h39.679v39.679h-39.679v-39.679Z"/>
        <path class="cls-2" d="M615.826,129.884h39.679v39.679h-39.679v-39.679Z"/>
        <path class="cls-2" d="M669.826,129.884h39.679v39.679h-39.679v-39.679Z"/>
        <path class="cls-2" d="M81.759,115.563H42.073v-39.679h39.686v39.679Z"/>
        <path class="cls-2" d="M75.013,61.563H35.326V21.884h39.686V61.563Z"/>
        <path class="cls-2" d="M23.914,174.999h25.042v-5.422h39.42v5.422h25.034v-53.777H23.921v53.777"/>
        <polygon class="cls-2" points="439.505 129.884 429.749 129.884 429.749 125.247 409.589 125.247 409.589 129.884 399.826 129.884 399.826 169.563 409.589 169.563 409.589 174.207 429.749 174.207 429.749 169.563 439.505 169.563 439.505 129.884"/>
        <path class="cls-2" d="M432.752,88.57V49.157h5.429V24.116h-53.784V113.612h53.784v-25.042h-5.429Z"/>
      </g>
    </g>
  </g>
</svg>