G04 #@! TF.GenerationSoftware,KiCad,Pcbnew,(5.1.9-0-10_14)*
G04 #@! TF.CreationDate,2021-08-28T22:47:01+09:00*
G04 #@! TF.ProjectId,kbd-template,6b62642d-7465-46d7-906c-6174652e6b69,rev?*
G04 #@! TF.SameCoordinates,Original*
G04 #@! TF.FileFunction,Profile,NP*
%FSLAX46Y46*%
G04 Gerber Fmt 4.6, Leading zero omitted, Abs format (unit mm)*
G04 Created by KiCad (PCBNEW (5.1.9-0-10_14)) date 2021-08-28 22:47:01*
%MOMM*%
%LPD*%
G01*
G04 APERTURE LIST*
G04 #@! TA.AperFunction,Profile*
%ADD10C,0.200000*%
G04 #@! TD*
G04 APERTURE END LIST*
D10*
X238124978Y-45085000D02*
X238112070Y-45340610D01*
X238112070Y-45340610D02*
X238074186Y-45588837D01*
X238074186Y-45588837D02*
X238012582Y-45828423D01*
X238012582Y-45828423D02*
X237928515Y-46058112D01*
X237928515Y-46058112D02*
X237823241Y-46276648D01*
X237823241Y-46276648D02*
X237698017Y-46482773D01*
X237698017Y-46482773D02*
X237554099Y-46675232D01*
X237554099Y-46675232D02*
X237392745Y-46852767D01*
X237392745Y-46852767D02*
X237215210Y-47014121D01*
X237215210Y-47014121D02*
X237022751Y-47158039D01*
X237022751Y-47158039D02*
X236816626Y-47283263D01*
X236816626Y-47283263D02*
X236598090Y-47388537D01*
X236598090Y-47388537D02*
X236368401Y-47472604D01*
X236368401Y-47472604D02*
X236128815Y-47534208D01*
X236128815Y-47534208D02*
X235880588Y-47572092D01*
X235880588Y-47572092D02*
X235624978Y-47585000D01*
X238124978Y7064994D02*
X238124978Y-45085000D01*
X-7025000Y-47585000D02*
X-7280610Y-47572092D01*
X-7280610Y-47572092D02*
X-7528837Y-47534208D01*
X-7528837Y-47534208D02*
X-7768423Y-47472604D01*
X-7768423Y-47472604D02*
X-7998112Y-47388537D01*
X-7998112Y-47388537D02*
X-8216648Y-47283263D01*
X-8216648Y-47283263D02*
X-8422773Y-47158039D01*
X-8422773Y-47158039D02*
X-8615232Y-47014121D01*
X-8615232Y-47014121D02*
X-8792767Y-46852767D01*
X-8792767Y-46852767D02*
X-8954121Y-46675232D01*
X-8954121Y-46675232D02*
X-9098039Y-46482773D01*
X-9098039Y-46482773D02*
X-9223263Y-46276648D01*
X-9223263Y-46276648D02*
X-9328537Y-46058112D01*
X-9328537Y-46058112D02*
X-9412604Y-45828423D01*
X-9412604Y-45828423D02*
X-9474208Y-45588837D01*
X-9474208Y-45588837D02*
X-9512092Y-45340610D01*
X-9512092Y-45340610D02*
X-9525000Y-45085000D01*
X235624978Y9564994D02*
X235880588Y9552086D01*
X235880588Y9552086D02*
X236128815Y9514202D01*
X236128815Y9514202D02*
X236368401Y9452598D01*
X236368401Y9452598D02*
X236598090Y9368531D01*
X236598090Y9368531D02*
X236816626Y9263257D01*
X236816626Y9263257D02*
X237022751Y9138033D01*
X237022751Y9138033D02*
X237215210Y8994115D01*
X237215210Y8994115D02*
X237392745Y8832761D01*
X237392745Y8832761D02*
X237554099Y8655226D01*
X237554099Y8655226D02*
X237698017Y8462767D01*
X237698017Y8462767D02*
X237823241Y8256642D01*
X237823241Y8256642D02*
X237928515Y8038106D01*
X237928515Y8038106D02*
X238012582Y7808417D01*
X238012582Y7808417D02*
X238074186Y7568831D01*
X238074186Y7568831D02*
X238112070Y7320604D01*
X238112070Y7320604D02*
X238124978Y7064994D01*
X-7025000Y9564994D02*
X235624978Y9564994D01*
X235624978Y-47585000D02*
X-7025000Y-47585000D01*
X-9525000Y7064994D02*
X-9512092Y7320604D01*
X-9512092Y7320604D02*
X-9474208Y7568831D01*
X-9474208Y7568831D02*
X-9412604Y7808417D01*
X-9412604Y7808417D02*
X-9328537Y8038106D01*
X-9328537Y8038106D02*
X-9223263Y8256642D01*
X-9223263Y8256642D02*
X-9098039Y8462767D01*
X-9098039Y8462767D02*
X-8954121Y8655226D01*
X-8954121Y8655226D02*
X-8792767Y8832761D01*
X-8792767Y8832761D02*
X-8615232Y8994115D01*
X-8615232Y8994115D02*
X-8422773Y9138033D01*
X-8422773Y9138033D02*
X-8216648Y9263257D01*
X-8216648Y9263257D02*
X-7998112Y9368531D01*
X-7998112Y9368531D02*
X-7768423Y9452598D01*
X-7768423Y9452598D02*
X-7528837Y9514202D01*
X-7528837Y9514202D02*
X-7280610Y9552086D01*
X-7280610Y9552086D02*
X-7025000Y9564994D01*
X-9525000Y-45085000D02*
X-9525000Y7064994D01*
M02*
