M48
; DRILL file {KiCad (5.1.9-0-10_14)} date Saturday, August 28, 2021 at 10:47:04 PM
; FORMAT={-:-/ absolute / metric / decimal}
; #@! TF.CreationDate,2021-08-28T22:47:04+09:00
; #@! TF.GenerationSoftware,Kicad,Pcbnew,(5.1.9-0-10_14)
; #@! TF.FileFunction,NonPlated,1,2,NPTH
FMAT,2
METRIC
T1C1.900
T2C2.150
T3C3.000
T4C3.048
T5C3.988
T6C4.100
T7C4.800
%
G90
G05
T1
X-0.317Y0.0
X2.064Y-19.05
X4.445Y-38.1
X9.843Y0.0
X12.224Y-19.05
X14.605Y-38.1
X23.495Y0.0
X28.258Y-19.05
X33.02Y-38.1
X33.655Y0.0
X38.417Y-19.05
X42.545Y0.0
X43.18Y-38.1
X47.307Y-19.05
X52.07Y-38.1
X52.705Y0.0
X57.467Y-19.05
X61.595Y0.0
X62.23Y-38.1
X66.358Y-19.05
X71.12Y-38.1
X71.755Y0.0
X76.517Y-19.05
X80.645Y0.0
X81.28Y-38.1
X85.407Y-19.05
X90.17Y-38.1
X90.805Y0.0
X95.567Y-19.05
X99.695Y0.0
X100.33Y-38.1
X104.458Y-19.05
X109.22Y-38.1
X109.855Y0.0
X114.618Y-19.05
X119.38Y-38.1
X128.27Y-38.1
X130.968Y-4.445
X130.968Y-14.605
X138.43Y-38.1
X147.32Y0.0
X147.32Y-19.05
X147.32Y-38.1
X157.48Y0.0
X157.48Y-19.05
X157.48Y-38.1
X166.37Y0.0
X166.37Y-19.05
X166.37Y-38.1
X176.53Y0.0
X176.53Y-19.05
X176.53Y-38.1
X185.42Y0.0
X185.42Y-19.05
X185.42Y-38.1
X195.58Y0.0
X195.58Y-19.05
X195.58Y-38.1
X204.47Y0.0
X204.47Y-19.05
X204.47Y-38.1
X214.63Y0.0
X214.63Y-19.05
X214.63Y-38.1
X223.52Y0.0
X223.52Y-19.05
X223.52Y-38.1
X233.68Y0.0
X233.68Y-19.05
X233.68Y-38.1
T2
X-6.985Y6.985
X-6.985Y-45.085
X76.2Y6.985
X85.725Y-45.085
X161.925Y6.985
X161.925Y-45.085
X219.075Y6.985
X219.075Y-45.085
X235.585Y-9.525
X235.585Y-28.575
T3
X0.953Y2.54
X3.334Y-16.51
X6.985Y-43.18
X7.303Y5.08
X9.684Y-13.97
X13.335Y-40.64
X24.765Y2.54
X29.527Y-16.51
X31.115Y5.08
X35.56Y-43.18
X35.877Y-13.97
X41.91Y-40.64
X43.815Y2.54
X48.578Y-16.51
X50.165Y5.08
X54.61Y-43.18
X54.927Y-13.97
X60.96Y-40.64
X62.865Y2.54
X67.627Y-16.51
X69.215Y5.08
X73.66Y-43.18
X73.977Y-13.97
X80.01Y-40.64
X81.915Y2.54
X86.677Y-16.51
X88.265Y5.08
X92.71Y-43.18
X93.027Y-13.97
X99.06Y-40.64
X100.965Y2.54
X105.728Y-16.51
X107.315Y5.08
X111.76Y-43.18
X112.078Y-13.97
X118.11Y-40.64
X125.888Y-6.985
X128.428Y-13.335
X130.81Y-43.18
X137.16Y-40.64
X148.59Y2.54
X148.59Y-16.51
X149.86Y-43.18
X154.94Y5.08
X154.94Y-13.97
X156.21Y-40.64
X167.64Y2.54
X167.64Y-16.51
X168.91Y-43.18
X173.99Y5.08
X173.99Y-13.97
X175.26Y-40.64
X186.69Y2.54
X186.69Y-16.51
X187.96Y-43.18
X193.04Y5.08
X193.04Y-13.97
X194.31Y-40.64
X205.74Y2.54
X205.74Y-16.51
X207.01Y-43.18
X212.09Y5.08
X212.09Y-13.97
X213.36Y-40.64
X224.79Y2.54
X224.79Y-16.51
X226.06Y-43.18
X231.14Y5.08
X231.14Y-13.97
X232.41Y-40.64
T4
X-2.375Y-45.085
X21.425Y-45.085
X137.953Y2.375
X137.953Y-21.425
T5
X-2.375Y-29.845
X21.425Y-29.845
X122.713Y2.375
X122.713Y-21.425
T6
X4.763Y0.0
X7.144Y-19.05
X9.525Y-38.1
X28.575Y0.0
X33.337Y-19.05
X38.1Y-38.1
X47.625Y0.0
X52.387Y-19.05
X57.15Y-38.1
X66.675Y0.0
X71.438Y-19.05
X76.2Y-38.1
X85.725Y0.0
X90.487Y-19.05
X95.25Y-38.1
X104.775Y0.0
X109.538Y-19.05
X114.3Y-38.1
X130.968Y-9.525
X133.35Y-38.1
X152.4Y0.0
X152.4Y-19.05
X152.4Y-38.1
X171.45Y0.0
X171.45Y-19.05
X171.45Y-38.1
X190.5Y0.0
X190.5Y-19.05
X190.5Y-38.1
X209.55Y0.0
X209.55Y-19.05
X209.55Y-38.1
X228.6Y0.0
X228.6Y-19.05
X228.6Y-38.1
T7
X28.575Y-28.58
X38.1Y-9.525
X95.25Y-9.525
X161.925Y-28.575
X219.075Y-9.525
X219.075Y-28.575
T0
M30
