G04 #@! TF.GenerationSoftware,KiCad,Pcbnew,(5.1.9-0-10_14)*
G04 #@! TF.CreationDate,2021-08-28T22:47:01+09:00*
G04 #@! TF.ProjectId,kbd-template,6b62642d-7465-46d7-906c-6174652e6b69,rev?*
G04 #@! TF.SameCoordinates,Original*
G04 #@! TF.FileFunction,Legend,Top*
G04 #@! TF.FilePolarity,Positive*
%FSLAX46Y46*%
G04 Gerber Fmt 4.6, Leading zero omitted, Abs format (unit mm)*
G04 Created by KiCad (PCBNEW (5.1.9-0-10_14)) date 2021-08-28 22:47:01*
%MOMM*%
%LPD*%
G01*
G04 APERTURE LIST*
%ADD10C,0.150000*%
%ADD11C,0.120000*%
%ADD12C,0.125000*%
G04 APERTURE END LIST*
D10*
X58900000Y-9350000D02*
X58900000Y-3350000D01*
X58900000Y-3350000D02*
X58650000Y-3350000D01*
X58900000Y-9350000D02*
X58650000Y-9350000D01*
X55400000Y-9350000D02*
X55650000Y-9350000D01*
X55400000Y-9350000D02*
X55400000Y-3350000D01*
X55400000Y-3350000D02*
X55650000Y-3350000D01*
X23894000Y-9896000D02*
X23894000Y-10906000D01*
X23894000Y-27696000D02*
X23894000Y-26696000D01*
X22894000Y-9896000D02*
X23894000Y-9896000D01*
X22844000Y-27696000D02*
X23894000Y-27696000D01*
X-9156000Y-9896000D02*
X-9156000Y-10846000D01*
X-9156000Y-27696000D02*
X-9156000Y-26696000D01*
X-9156000Y-9896000D02*
X-8156000Y-9896000D01*
X-9156000Y-27696000D02*
X-8156000Y-27696000D01*
D11*
X133350000Y-38600000D02*
X133350000Y-37600000D01*
X132850000Y-38100000D02*
X133850000Y-38100000D01*
X136850000Y-32000000D02*
X139250000Y-32000000D01*
X132050000Y-32000000D02*
X134650000Y-32000000D01*
X127450000Y-32000000D02*
X129850000Y-32000000D01*
X139250000Y-40100000D02*
X139250000Y-44200000D01*
X139250000Y-32000000D02*
X139250000Y-36100000D01*
X127450000Y-36100000D02*
X127450000Y-32000000D01*
X129250000Y-45300000D02*
X129550000Y-45600000D01*
X129250000Y-45900000D02*
X129250000Y-45300000D01*
X129550000Y-45600000D02*
X129250000Y-45900000D01*
X127450000Y-44200000D02*
X139250000Y-44200000D01*
X127450000Y-40100000D02*
X127450000Y-44200000D01*
X136350000Y-38100000D02*
G75*
G03*
X136350000Y-38100000I-3000000J0D01*
G01*
D10*
X7239285Y-46378761D02*
X7382142Y-46426380D01*
X7620238Y-46426380D01*
X7715476Y-46378761D01*
X7763095Y-46331142D01*
X7810714Y-46235904D01*
X7810714Y-46140666D01*
X7763095Y-46045428D01*
X7715476Y-45997809D01*
X7620238Y-45950190D01*
X7429761Y-45902571D01*
X7334523Y-45854952D01*
X7286904Y-45807333D01*
X7239285Y-45712095D01*
X7239285Y-45616857D01*
X7286904Y-45521619D01*
X7334523Y-45474000D01*
X7429761Y-45426380D01*
X7667857Y-45426380D01*
X7810714Y-45474000D01*
X8144047Y-45426380D02*
X8382142Y-46426380D01*
X8572619Y-45712095D01*
X8763095Y-46426380D01*
X9001190Y-45426380D01*
X9810714Y-45759714D02*
X9810714Y-46426380D01*
X9572619Y-45378761D02*
X9334523Y-46093047D01*
X9953571Y-46093047D01*
X10525000Y-45426380D02*
X10620238Y-45426380D01*
X10715476Y-45474000D01*
X10763095Y-45521619D01*
X10810714Y-45616857D01*
X10858333Y-45807333D01*
X10858333Y-46045428D01*
X10810714Y-46235904D01*
X10763095Y-46331142D01*
X10715476Y-46378761D01*
X10620238Y-46426380D01*
X10525000Y-46426380D01*
X10429761Y-46378761D01*
X10382142Y-46331142D01*
X10334523Y-46235904D01*
X10286904Y-46045428D01*
X10286904Y-45807333D01*
X10334523Y-45616857D01*
X10382142Y-45521619D01*
X10429761Y-45474000D01*
X10525000Y-45426380D01*
X11810714Y-46426380D02*
X11239285Y-46426380D01*
X11525000Y-46426380D02*
X11525000Y-45426380D01*
X11429761Y-45569238D01*
X11334523Y-45664476D01*
X11239285Y-45712095D01*
X4858285Y-11580761D02*
X5001142Y-11628380D01*
X5239238Y-11628380D01*
X5334476Y-11580761D01*
X5382095Y-11533142D01*
X5429714Y-11437904D01*
X5429714Y-11342666D01*
X5382095Y-11247428D01*
X5334476Y-11199809D01*
X5239238Y-11152190D01*
X5048761Y-11104571D01*
X4953523Y-11056952D01*
X4905904Y-11009333D01*
X4858285Y-10914095D01*
X4858285Y-10818857D01*
X4905904Y-10723619D01*
X4953523Y-10676000D01*
X5048761Y-10628380D01*
X5286857Y-10628380D01*
X5429714Y-10676000D01*
X5763047Y-10628380D02*
X6001142Y-11628380D01*
X6191619Y-10914095D01*
X6382095Y-11628380D01*
X6620190Y-10628380D01*
X6905904Y-10628380D02*
X7524952Y-10628380D01*
X7191619Y-11009333D01*
X7334476Y-11009333D01*
X7429714Y-11056952D01*
X7477333Y-11104571D01*
X7524952Y-11199809D01*
X7524952Y-11437904D01*
X7477333Y-11533142D01*
X7429714Y-11580761D01*
X7334476Y-11628380D01*
X7048761Y-11628380D01*
X6953523Y-11580761D01*
X6905904Y-11533142D01*
X8144000Y-10628380D02*
X8239238Y-10628380D01*
X8334476Y-10676000D01*
X8382095Y-10723619D01*
X8429714Y-10818857D01*
X8477333Y-11009333D01*
X8477333Y-11247428D01*
X8429714Y-11437904D01*
X8382095Y-11533142D01*
X8334476Y-11580761D01*
X8239238Y-11628380D01*
X8144000Y-11628380D01*
X8048761Y-11580761D01*
X8001142Y-11533142D01*
X7953523Y-11437904D01*
X7905904Y-11247428D01*
X7905904Y-11009333D01*
X7953523Y-10818857D01*
X8001142Y-10723619D01*
X8048761Y-10676000D01*
X8144000Y-10628380D01*
X9429714Y-11628380D02*
X8858285Y-11628380D01*
X9144000Y-11628380D02*
X9144000Y-10628380D01*
X9048761Y-10771238D01*
X8953523Y-10866476D01*
X8858285Y-10914095D01*
X2477285Y7469238D02*
X2620142Y7421619D01*
X2858238Y7421619D01*
X2953476Y7469238D01*
X3001095Y7516857D01*
X3048714Y7612095D01*
X3048714Y7707333D01*
X3001095Y7802571D01*
X2953476Y7850190D01*
X2858238Y7897809D01*
X2667761Y7945428D01*
X2572523Y7993047D01*
X2524904Y8040666D01*
X2477285Y8135904D01*
X2477285Y8231142D01*
X2524904Y8326380D01*
X2572523Y8374000D01*
X2667761Y8421619D01*
X2905857Y8421619D01*
X3048714Y8374000D01*
X3382047Y8421619D02*
X3620142Y7421619D01*
X3810619Y8135904D01*
X4001095Y7421619D01*
X4239190Y8421619D01*
X4572523Y8326380D02*
X4620142Y8374000D01*
X4715380Y8421619D01*
X4953476Y8421619D01*
X5048714Y8374000D01*
X5096333Y8326380D01*
X5143952Y8231142D01*
X5143952Y8135904D01*
X5096333Y7993047D01*
X4524904Y7421619D01*
X5143952Y7421619D01*
X5763000Y8421619D02*
X5858238Y8421619D01*
X5953476Y8374000D01*
X6001095Y8326380D01*
X6048714Y8231142D01*
X6096333Y8040666D01*
X6096333Y7802571D01*
X6048714Y7612095D01*
X6001095Y7516857D01*
X5953476Y7469238D01*
X5858238Y7421619D01*
X5763000Y7421619D01*
X5667761Y7469238D01*
X5620142Y7516857D01*
X5572523Y7612095D01*
X5524904Y7802571D01*
X5524904Y8040666D01*
X5572523Y8231142D01*
X5620142Y8326380D01*
X5667761Y8374000D01*
X5763000Y8421619D01*
X7048714Y7421619D02*
X6477285Y7421619D01*
X6763000Y7421619D02*
X6763000Y8421619D01*
X6667761Y8278761D01*
X6572523Y8183523D01*
X6477285Y8135904D01*
X57602380Y-7802380D02*
X57126190Y-8135714D01*
X57602380Y-8373809D02*
X56602380Y-8373809D01*
X56602380Y-7992857D01*
X56650000Y-7897619D01*
X56697619Y-7850000D01*
X56792857Y-7802380D01*
X56935714Y-7802380D01*
X57030952Y-7850000D01*
X57078571Y-7897619D01*
X57126190Y-7992857D01*
X57126190Y-8373809D01*
X57078571Y-7373809D02*
X57078571Y-7040476D01*
X57602380Y-6897619D02*
X57602380Y-7373809D01*
X56602380Y-7373809D01*
X56602380Y-6897619D01*
X57554761Y-6516666D02*
X57602380Y-6373809D01*
X57602380Y-6135714D01*
X57554761Y-6040476D01*
X57507142Y-5992857D01*
X57411904Y-5945238D01*
X57316666Y-5945238D01*
X57221428Y-5992857D01*
X57173809Y-6040476D01*
X57126190Y-6135714D01*
X57078571Y-6326190D01*
X57030952Y-6421428D01*
X56983333Y-6469047D01*
X56888095Y-6516666D01*
X56792857Y-6516666D01*
X56697619Y-6469047D01*
X56650000Y-6421428D01*
X56602380Y-6326190D01*
X56602380Y-6088095D01*
X56650000Y-5945238D01*
X57078571Y-5516666D02*
X57078571Y-5183333D01*
X57602380Y-5040476D02*
X57602380Y-5516666D01*
X56602380Y-5516666D01*
X56602380Y-5040476D01*
X56602380Y-4754761D02*
X56602380Y-4183333D01*
X57602380Y-4469047D02*
X56602380Y-4469047D01*
D12*
X19990428Y-14847190D02*
X20026142Y-14751476D01*
X20061857Y-14719571D01*
X20133285Y-14687666D01*
X20240428Y-14687666D01*
X20311857Y-14719571D01*
X20347571Y-14751476D01*
X20383285Y-14815285D01*
X20383285Y-15070523D01*
X19633285Y-15070523D01*
X19633285Y-14847190D01*
X19669000Y-14783380D01*
X19704714Y-14751476D01*
X19776142Y-14719571D01*
X19847571Y-14719571D01*
X19919000Y-14751476D01*
X19954714Y-14783380D01*
X19990428Y-14847190D01*
X19990428Y-15070523D01*
X19883285Y-14113380D02*
X20383285Y-14113380D01*
X19597571Y-14272904D02*
X20133285Y-14432428D01*
X20133285Y-14017666D01*
X19597571Y-13283857D02*
X20561857Y-13858142D01*
X19954714Y-12964809D02*
X19919000Y-13028619D01*
X19883285Y-13060523D01*
X19811857Y-13092428D01*
X19776142Y-13092428D01*
X19704714Y-13060523D01*
X19669000Y-13028619D01*
X19633285Y-12964809D01*
X19633285Y-12837190D01*
X19669000Y-12773380D01*
X19704714Y-12741476D01*
X19776142Y-12709571D01*
X19811857Y-12709571D01*
X19883285Y-12741476D01*
X19919000Y-12773380D01*
X19954714Y-12837190D01*
X19954714Y-12964809D01*
X19990428Y-13028619D01*
X20026142Y-13060523D01*
X20097571Y-13092428D01*
X20240428Y-13092428D01*
X20311857Y-13060523D01*
X20347571Y-13028619D01*
X20383285Y-12964809D01*
X20383285Y-12837190D01*
X20347571Y-12773380D01*
X20311857Y-12741476D01*
X20240428Y-12709571D01*
X20097571Y-12709571D01*
X20026142Y-12741476D01*
X19990428Y-12773380D01*
X19954714Y-12837190D01*
X-2416714Y-16544571D02*
X-3166714Y-16544571D01*
X-3166714Y-16385047D01*
X-3131000Y-16289333D01*
X-3059571Y-16225523D01*
X-2988142Y-16193619D01*
X-2845285Y-16161714D01*
X-2738142Y-16161714D01*
X-2595285Y-16193619D01*
X-2523857Y-16225523D01*
X-2452428Y-16289333D01*
X-2416714Y-16385047D01*
X-2416714Y-16544571D01*
X-3095285Y-15906476D02*
X-3131000Y-15874571D01*
X-3166714Y-15810761D01*
X-3166714Y-15651238D01*
X-3131000Y-15587428D01*
X-3095285Y-15555523D01*
X-3023857Y-15523619D01*
X-2952428Y-15523619D01*
X-2845285Y-15555523D01*
X-2416714Y-15938380D01*
X-2416714Y-15523619D01*
X-3202428Y-14757904D02*
X-2238142Y-15332190D01*
X-2416714Y-14151714D02*
X-2773857Y-14375047D01*
X-2416714Y-14534571D02*
X-3166714Y-14534571D01*
X-3166714Y-14279333D01*
X-3131000Y-14215523D01*
X-3095285Y-14183619D01*
X-3023857Y-14151714D01*
X-2916714Y-14151714D01*
X-2845285Y-14183619D01*
X-2809571Y-14215523D01*
X-2773857Y-14279333D01*
X-2773857Y-14534571D01*
X-3166714Y-13928380D02*
X-2416714Y-13481714D01*
X-3166714Y-13481714D02*
X-2416714Y-13928380D01*
X-2416714Y-12875523D02*
X-2416714Y-13258380D01*
X-2416714Y-13066952D02*
X-3166714Y-13066952D01*
X-3059571Y-13130761D01*
X-2988142Y-13194571D01*
X-2952428Y-13258380D01*
X22490428Y-14847190D02*
X22526142Y-14751476D01*
X22561857Y-14719571D01*
X22633285Y-14687666D01*
X22740428Y-14687666D01*
X22811857Y-14719571D01*
X22847571Y-14751476D01*
X22883285Y-14815285D01*
X22883285Y-15070523D01*
X22133285Y-15070523D01*
X22133285Y-14847190D01*
X22169000Y-14783380D01*
X22204714Y-14751476D01*
X22276142Y-14719571D01*
X22347571Y-14719571D01*
X22419000Y-14751476D01*
X22454714Y-14783380D01*
X22490428Y-14847190D01*
X22490428Y-15070523D01*
X22133285Y-14081476D02*
X22133285Y-14400523D01*
X22490428Y-14432428D01*
X22454714Y-14400523D01*
X22419000Y-14336714D01*
X22419000Y-14177190D01*
X22454714Y-14113380D01*
X22490428Y-14081476D01*
X22561857Y-14049571D01*
X22740428Y-14049571D01*
X22811857Y-14081476D01*
X22847571Y-14113380D01*
X22883285Y-14177190D01*
X22883285Y-14336714D01*
X22847571Y-14400523D01*
X22811857Y-14432428D01*
X22097571Y-13283857D02*
X23061857Y-13858142D01*
X22883285Y-13028619D02*
X22883285Y-12901000D01*
X22847571Y-12837190D01*
X22811857Y-12805285D01*
X22704714Y-12741476D01*
X22561857Y-12709571D01*
X22276142Y-12709571D01*
X22204714Y-12741476D01*
X22169000Y-12773380D01*
X22133285Y-12837190D01*
X22133285Y-12964809D01*
X22169000Y-13028619D01*
X22204714Y-13060523D01*
X22276142Y-13092428D01*
X22454714Y-13092428D01*
X22526142Y-13060523D01*
X22561857Y-13028619D01*
X22597571Y-12964809D01*
X22597571Y-12837190D01*
X22561857Y-12773380D01*
X22526142Y-12741476D01*
X22454714Y-12709571D01*
X12661857Y-14687666D02*
X12697571Y-14719571D01*
X12733285Y-14815285D01*
X12733285Y-14879095D01*
X12697571Y-14974809D01*
X12626142Y-15038619D01*
X12554714Y-15070523D01*
X12411857Y-15102428D01*
X12304714Y-15102428D01*
X12161857Y-15070523D01*
X12090428Y-15038619D01*
X12019000Y-14974809D01*
X11983285Y-14879095D01*
X11983285Y-14815285D01*
X12019000Y-14719571D01*
X12054714Y-14687666D01*
X11983285Y-14113380D02*
X11983285Y-14241000D01*
X12019000Y-14304809D01*
X12054714Y-14336714D01*
X12161857Y-14400523D01*
X12304714Y-14432428D01*
X12590428Y-14432428D01*
X12661857Y-14400523D01*
X12697571Y-14368619D01*
X12733285Y-14304809D01*
X12733285Y-14177190D01*
X12697571Y-14113380D01*
X12661857Y-14081476D01*
X12590428Y-14049571D01*
X12411857Y-14049571D01*
X12340428Y-14081476D01*
X12304714Y-14113380D01*
X12269000Y-14177190D01*
X12269000Y-14304809D01*
X12304714Y-14368619D01*
X12340428Y-14400523D01*
X12411857Y-14432428D01*
X11947571Y-13283857D02*
X12911857Y-13858142D01*
X11983285Y-12741476D02*
X11983285Y-13060523D01*
X12340428Y-13092428D01*
X12304714Y-13060523D01*
X12269000Y-12996714D01*
X12269000Y-12837190D01*
X12304714Y-12773380D01*
X12340428Y-12741476D01*
X12411857Y-12709571D01*
X12590428Y-12709571D01*
X12661857Y-12741476D01*
X12697571Y-12773380D01*
X12733285Y-12837190D01*
X12733285Y-12996714D01*
X12697571Y-13060523D01*
X12661857Y-13092428D01*
X7747571Y-17768619D02*
X7783285Y-17672904D01*
X7783285Y-17513380D01*
X7747571Y-17449571D01*
X7711857Y-17417666D01*
X7640428Y-17385761D01*
X7569000Y-17385761D01*
X7497571Y-17417666D01*
X7461857Y-17449571D01*
X7426142Y-17513380D01*
X7390428Y-17641000D01*
X7354714Y-17704809D01*
X7319000Y-17736714D01*
X7247571Y-17768619D01*
X7176142Y-17768619D01*
X7104714Y-17736714D01*
X7069000Y-17704809D01*
X7033285Y-17641000D01*
X7033285Y-17481476D01*
X7069000Y-17385761D01*
X7711857Y-16715761D02*
X7747571Y-16747666D01*
X7783285Y-16843380D01*
X7783285Y-16907190D01*
X7747571Y-17002904D01*
X7676142Y-17066714D01*
X7604714Y-17098619D01*
X7461857Y-17130523D01*
X7354714Y-17130523D01*
X7211857Y-17098619D01*
X7140428Y-17066714D01*
X7069000Y-17002904D01*
X7033285Y-16907190D01*
X7033285Y-16843380D01*
X7069000Y-16747666D01*
X7104714Y-16715761D01*
X7783285Y-16109571D02*
X7783285Y-16428619D01*
X7033285Y-16428619D01*
X6997571Y-15407666D02*
X7961857Y-15981952D01*
X7783285Y-15184333D02*
X7033285Y-15184333D01*
X7033285Y-15024809D01*
X7069000Y-14929095D01*
X7140428Y-14865285D01*
X7211857Y-14833380D01*
X7354714Y-14801476D01*
X7461857Y-14801476D01*
X7604714Y-14833380D01*
X7676142Y-14865285D01*
X7747571Y-14929095D01*
X7783285Y-15024809D01*
X7783285Y-15184333D01*
X7033285Y-14386714D02*
X7033285Y-14322904D01*
X7069000Y-14259095D01*
X7104714Y-14227190D01*
X7176142Y-14195285D01*
X7319000Y-14163380D01*
X7497571Y-14163380D01*
X7640428Y-14195285D01*
X7711857Y-14227190D01*
X7747571Y-14259095D01*
X7783285Y-14322904D01*
X7783285Y-14386714D01*
X7747571Y-14450523D01*
X7711857Y-14482428D01*
X7640428Y-14514333D01*
X7497571Y-14546238D01*
X7319000Y-14546238D01*
X7176142Y-14514333D01*
X7104714Y-14482428D01*
X7069000Y-14450523D01*
X7033285Y-14386714D01*
X6997571Y-13397666D02*
X7961857Y-13971952D01*
X7033285Y-13238142D02*
X7033285Y-12823380D01*
X7319000Y-13046714D01*
X7319000Y-12951000D01*
X7354714Y-12887190D01*
X7390428Y-12855285D01*
X7461857Y-12823380D01*
X7640428Y-12823380D01*
X7711857Y-12855285D01*
X7747571Y-12887190D01*
X7783285Y-12951000D01*
X7783285Y-13142428D01*
X7747571Y-13206238D01*
X7711857Y-13238142D01*
X5247571Y-17784571D02*
X5283285Y-17688857D01*
X5283285Y-17529333D01*
X5247571Y-17465523D01*
X5211857Y-17433619D01*
X5140428Y-17401714D01*
X5069000Y-17401714D01*
X4997571Y-17433619D01*
X4961857Y-17465523D01*
X4926142Y-17529333D01*
X4890428Y-17656952D01*
X4854714Y-17720761D01*
X4819000Y-17752666D01*
X4747571Y-17784571D01*
X4676142Y-17784571D01*
X4604714Y-17752666D01*
X4569000Y-17720761D01*
X4533285Y-17656952D01*
X4533285Y-17497428D01*
X4569000Y-17401714D01*
X5283285Y-17114571D02*
X4533285Y-17114571D01*
X4533285Y-16955047D01*
X4569000Y-16859333D01*
X4640428Y-16795523D01*
X4711857Y-16763619D01*
X4854714Y-16731714D01*
X4961857Y-16731714D01*
X5104714Y-16763619D01*
X5176142Y-16795523D01*
X5247571Y-16859333D01*
X5283285Y-16955047D01*
X5283285Y-17114571D01*
X5069000Y-16476476D02*
X5069000Y-16157428D01*
X5283285Y-16540285D02*
X4533285Y-16316952D01*
X5283285Y-16093619D01*
X4497571Y-15391714D02*
X5461857Y-15966000D01*
X5283285Y-15168380D02*
X4533285Y-15168380D01*
X4533285Y-15008857D01*
X4569000Y-14913142D01*
X4640428Y-14849333D01*
X4711857Y-14817428D01*
X4854714Y-14785523D01*
X4961857Y-14785523D01*
X5104714Y-14817428D01*
X5176142Y-14849333D01*
X5247571Y-14913142D01*
X5283285Y-15008857D01*
X5283285Y-15168380D01*
X5283285Y-14147428D02*
X5283285Y-14530285D01*
X5283285Y-14338857D02*
X4533285Y-14338857D01*
X4640428Y-14402666D01*
X4711857Y-14466476D01*
X4747571Y-14530285D01*
X4497571Y-13381714D02*
X5461857Y-13956000D01*
X4604714Y-13190285D02*
X4569000Y-13158380D01*
X4533285Y-13094571D01*
X4533285Y-12935047D01*
X4569000Y-12871238D01*
X4604714Y-12839333D01*
X4676142Y-12807428D01*
X4747571Y-12807428D01*
X4854714Y-12839333D01*
X5283285Y-13222190D01*
X5283285Y-12807428D01*
X10183285Y-15070523D02*
X9433285Y-15070523D01*
X9433285Y-14911000D01*
X9469000Y-14815285D01*
X9540428Y-14751476D01*
X9611857Y-14719571D01*
X9754714Y-14687666D01*
X9861857Y-14687666D01*
X10004714Y-14719571D01*
X10076142Y-14751476D01*
X10147571Y-14815285D01*
X10183285Y-14911000D01*
X10183285Y-15070523D01*
X9683285Y-14113380D02*
X10183285Y-14113380D01*
X9397571Y-14272904D02*
X9933285Y-14432428D01*
X9933285Y-14017666D01*
X9397571Y-13283857D02*
X10361857Y-13858142D01*
X9683285Y-12773380D02*
X10183285Y-12773380D01*
X9397571Y-12932904D02*
X9933285Y-13092428D01*
X9933285Y-12677666D01*
X-4966714Y-16464809D02*
X-5716714Y-16464809D01*
X-5716714Y-16305285D01*
X-5681000Y-16209571D01*
X-5609571Y-16145761D01*
X-5538142Y-16113857D01*
X-5395285Y-16081952D01*
X-5288142Y-16081952D01*
X-5145285Y-16113857D01*
X-5073857Y-16145761D01*
X-5002428Y-16209571D01*
X-4966714Y-16305285D01*
X-4966714Y-16464809D01*
X-5716714Y-15858619D02*
X-5716714Y-15443857D01*
X-5431000Y-15667190D01*
X-5431000Y-15571476D01*
X-5395285Y-15507666D01*
X-5359571Y-15475761D01*
X-5288142Y-15443857D01*
X-5109571Y-15443857D01*
X-5038142Y-15475761D01*
X-5002428Y-15507666D01*
X-4966714Y-15571476D01*
X-4966714Y-15762904D01*
X-5002428Y-15826714D01*
X-5038142Y-15858619D01*
X-5752428Y-14678142D02*
X-4788142Y-15252428D01*
X-5716714Y-14550523D02*
X-5716714Y-14167666D01*
X-4966714Y-14359095D02*
X-5716714Y-14359095D01*
X-5716714Y-14008142D02*
X-4966714Y-13561476D01*
X-5716714Y-13561476D02*
X-4966714Y-14008142D01*
X-5716714Y-13178619D02*
X-5716714Y-13114809D01*
X-5681000Y-13051000D01*
X-5645285Y-13019095D01*
X-5573857Y-12987190D01*
X-5431000Y-12955285D01*
X-5252428Y-12955285D01*
X-5109571Y-12987190D01*
X-5038142Y-13019095D01*
X-5002428Y-13051000D01*
X-4966714Y-13114809D01*
X-4966714Y-13178619D01*
X-5002428Y-13242428D01*
X-5038142Y-13274333D01*
X-5109571Y-13306238D01*
X-5252428Y-13338142D01*
X-5431000Y-13338142D01*
X-5573857Y-13306238D01*
X-5645285Y-13274333D01*
X-5681000Y-13242428D01*
X-5716714Y-13178619D01*
X1919000Y-14281476D02*
X1883285Y-14345285D01*
X1883285Y-14441000D01*
X1919000Y-14536714D01*
X1990428Y-14600523D01*
X2061857Y-14632428D01*
X2204714Y-14664333D01*
X2311857Y-14664333D01*
X2454714Y-14632428D01*
X2526142Y-14600523D01*
X2597571Y-14536714D01*
X2633285Y-14441000D01*
X2633285Y-14377190D01*
X2597571Y-14281476D01*
X2561857Y-14249571D01*
X2311857Y-14249571D01*
X2311857Y-14377190D01*
X2633285Y-13962428D02*
X1883285Y-13962428D01*
X2633285Y-13579571D01*
X1883285Y-13579571D01*
X2633285Y-13260523D02*
X1883285Y-13260523D01*
X1883285Y-13101000D01*
X1919000Y-13005285D01*
X1990428Y-12941476D01*
X2061857Y-12909571D01*
X2204714Y-12877666D01*
X2311857Y-12877666D01*
X2454714Y-12909571D01*
X2526142Y-12941476D01*
X2597571Y-13005285D01*
X2633285Y-13101000D01*
X2633285Y-13260523D01*
X-531000Y-14281476D02*
X-566714Y-14345285D01*
X-566714Y-14441000D01*
X-531000Y-14536714D01*
X-459571Y-14600523D01*
X-388142Y-14632428D01*
X-245285Y-14664333D01*
X-138142Y-14664333D01*
X4714Y-14632428D01*
X76142Y-14600523D01*
X147571Y-14536714D01*
X183285Y-14441000D01*
X183285Y-14377190D01*
X147571Y-14281476D01*
X111857Y-14249571D01*
X-138142Y-14249571D01*
X-138142Y-14377190D01*
X183285Y-13962428D02*
X-566714Y-13962428D01*
X183285Y-13579571D01*
X-566714Y-13579571D01*
X183285Y-13260523D02*
X-566714Y-13260523D01*
X-566714Y-13101000D01*
X-531000Y-13005285D01*
X-459571Y-12941476D01*
X-388142Y-12909571D01*
X-245285Y-12877666D01*
X-138142Y-12877666D01*
X4714Y-12909571D01*
X76142Y-12941476D01*
X147571Y-13005285D01*
X183285Y-13101000D01*
X183285Y-13260523D01*
X15283285Y-15070523D02*
X14533285Y-15070523D01*
X14533285Y-14911000D01*
X14569000Y-14815285D01*
X14640428Y-14751476D01*
X14711857Y-14719571D01*
X14854714Y-14687666D01*
X14961857Y-14687666D01*
X15104714Y-14719571D01*
X15176142Y-14751476D01*
X15247571Y-14815285D01*
X15283285Y-14911000D01*
X15283285Y-15070523D01*
X14533285Y-14464333D02*
X14533285Y-14017666D01*
X15283285Y-14304809D01*
X14497571Y-13283857D02*
X15461857Y-13858142D01*
X14533285Y-12773380D02*
X14533285Y-12901000D01*
X14569000Y-12964809D01*
X14604714Y-12996714D01*
X14711857Y-13060523D01*
X14854714Y-13092428D01*
X15140428Y-13092428D01*
X15211857Y-13060523D01*
X15247571Y-13028619D01*
X15283285Y-12964809D01*
X15283285Y-12837190D01*
X15247571Y-12773380D01*
X15211857Y-12741476D01*
X15140428Y-12709571D01*
X14961857Y-12709571D01*
X14890428Y-12741476D01*
X14854714Y-12773380D01*
X14819000Y-12837190D01*
X14819000Y-12964809D01*
X14854714Y-13028619D01*
X14890428Y-13060523D01*
X14961857Y-13092428D01*
X17440428Y-15038619D02*
X17440428Y-14815285D01*
X17833285Y-14719571D02*
X17833285Y-15038619D01*
X17083285Y-15038619D01*
X17083285Y-14719571D01*
X17083285Y-14145285D02*
X17083285Y-14272904D01*
X17119000Y-14336714D01*
X17154714Y-14368619D01*
X17261857Y-14432428D01*
X17404714Y-14464333D01*
X17690428Y-14464333D01*
X17761857Y-14432428D01*
X17797571Y-14400523D01*
X17833285Y-14336714D01*
X17833285Y-14209095D01*
X17797571Y-14145285D01*
X17761857Y-14113380D01*
X17690428Y-14081476D01*
X17511857Y-14081476D01*
X17440428Y-14113380D01*
X17404714Y-14145285D01*
X17369000Y-14209095D01*
X17369000Y-14336714D01*
X17404714Y-14400523D01*
X17440428Y-14432428D01*
X17511857Y-14464333D01*
X17047571Y-13315761D02*
X18011857Y-13890047D01*
X17083285Y-13156238D02*
X17083285Y-12709571D01*
X17833285Y-12996714D01*
X20433285Y-24423619D02*
X20433285Y-24806476D01*
X20433285Y-24615047D02*
X19683285Y-24615047D01*
X19790428Y-24678857D01*
X19861857Y-24742666D01*
X19897571Y-24806476D01*
X19683285Y-23849333D02*
X19683285Y-23976952D01*
X19719000Y-24040761D01*
X19754714Y-24072666D01*
X19861857Y-24136476D01*
X20004714Y-24168380D01*
X20290428Y-24168380D01*
X20361857Y-24136476D01*
X20397571Y-24104571D01*
X20433285Y-24040761D01*
X20433285Y-23913142D01*
X20397571Y-23849333D01*
X20361857Y-23817428D01*
X20290428Y-23785523D01*
X20111857Y-23785523D01*
X20040428Y-23817428D01*
X20004714Y-23849333D01*
X19969000Y-23913142D01*
X19969000Y-24040761D01*
X20004714Y-24104571D01*
X20040428Y-24136476D01*
X20111857Y-24168380D01*
X19647571Y-23019809D02*
X20611857Y-23594095D01*
X20040428Y-22573142D02*
X20076142Y-22477428D01*
X20111857Y-22445523D01*
X20183285Y-22413619D01*
X20290428Y-22413619D01*
X20361857Y-22445523D01*
X20397571Y-22477428D01*
X20433285Y-22541238D01*
X20433285Y-22796476D01*
X19683285Y-22796476D01*
X19683285Y-22573142D01*
X19719000Y-22509333D01*
X19754714Y-22477428D01*
X19826142Y-22445523D01*
X19897571Y-22445523D01*
X19969000Y-22477428D01*
X20004714Y-22509333D01*
X20040428Y-22573142D01*
X20040428Y-22796476D01*
X19754714Y-22158380D02*
X19719000Y-22126476D01*
X19683285Y-22062666D01*
X19683285Y-21903142D01*
X19719000Y-21839333D01*
X19754714Y-21807428D01*
X19826142Y-21775523D01*
X19897571Y-21775523D01*
X20004714Y-21807428D01*
X20433285Y-22190285D01*
X20433285Y-21775523D01*
X22933285Y-24423619D02*
X22933285Y-24806476D01*
X22933285Y-24615047D02*
X22183285Y-24615047D01*
X22290428Y-24678857D01*
X22361857Y-24742666D01*
X22397571Y-24806476D01*
X22183285Y-24008857D02*
X22183285Y-23945047D01*
X22219000Y-23881238D01*
X22254714Y-23849333D01*
X22326142Y-23817428D01*
X22469000Y-23785523D01*
X22647571Y-23785523D01*
X22790428Y-23817428D01*
X22861857Y-23849333D01*
X22897571Y-23881238D01*
X22933285Y-23945047D01*
X22933285Y-24008857D01*
X22897571Y-24072666D01*
X22861857Y-24104571D01*
X22790428Y-24136476D01*
X22647571Y-24168380D01*
X22469000Y-24168380D01*
X22326142Y-24136476D01*
X22254714Y-24104571D01*
X22219000Y-24072666D01*
X22183285Y-24008857D01*
X22147571Y-23019809D02*
X23111857Y-23594095D01*
X22540428Y-22573142D02*
X22576142Y-22477428D01*
X22611857Y-22445523D01*
X22683285Y-22413619D01*
X22790428Y-22413619D01*
X22861857Y-22445523D01*
X22897571Y-22477428D01*
X22933285Y-22541238D01*
X22933285Y-22796476D01*
X22183285Y-22796476D01*
X22183285Y-22573142D01*
X22219000Y-22509333D01*
X22254714Y-22477428D01*
X22326142Y-22445523D01*
X22397571Y-22445523D01*
X22469000Y-22477428D01*
X22504714Y-22509333D01*
X22540428Y-22573142D01*
X22540428Y-22796476D01*
X22183285Y-21839333D02*
X22183285Y-21966952D01*
X22219000Y-22030761D01*
X22254714Y-22062666D01*
X22361857Y-22126476D01*
X22504714Y-22158380D01*
X22790428Y-22158380D01*
X22861857Y-22126476D01*
X22897571Y-22094571D01*
X22933285Y-22030761D01*
X22933285Y-21903142D01*
X22897571Y-21839333D01*
X22861857Y-21807428D01*
X22790428Y-21775523D01*
X22611857Y-21775523D01*
X22540428Y-21807428D01*
X22504714Y-21839333D01*
X22469000Y-21903142D01*
X22469000Y-22030761D01*
X22504714Y-22094571D01*
X22540428Y-22126476D01*
X22611857Y-22158380D01*
X17883285Y-24423619D02*
X17883285Y-24806476D01*
X17883285Y-24615047D02*
X17133285Y-24615047D01*
X17240428Y-24678857D01*
X17311857Y-24742666D01*
X17347571Y-24806476D01*
X17383285Y-23849333D02*
X17883285Y-23849333D01*
X17097571Y-24008857D02*
X17633285Y-24168380D01*
X17633285Y-23753619D01*
X17097571Y-23019809D02*
X18061857Y-23594095D01*
X17490428Y-22573142D02*
X17526142Y-22477428D01*
X17561857Y-22445523D01*
X17633285Y-22413619D01*
X17740428Y-22413619D01*
X17811857Y-22445523D01*
X17847571Y-22477428D01*
X17883285Y-22541238D01*
X17883285Y-22796476D01*
X17133285Y-22796476D01*
X17133285Y-22573142D01*
X17169000Y-22509333D01*
X17204714Y-22477428D01*
X17276142Y-22445523D01*
X17347571Y-22445523D01*
X17419000Y-22477428D01*
X17454714Y-22509333D01*
X17490428Y-22573142D01*
X17490428Y-22796476D01*
X17133285Y-22190285D02*
X17133285Y-21775523D01*
X17419000Y-21998857D01*
X17419000Y-21903142D01*
X17454714Y-21839333D01*
X17490428Y-21807428D01*
X17561857Y-21775523D01*
X17740428Y-21775523D01*
X17811857Y-21807428D01*
X17847571Y-21839333D01*
X17883285Y-21903142D01*
X17883285Y-22094571D01*
X17847571Y-22158380D01*
X17811857Y-22190285D01*
X15333285Y-24423619D02*
X15333285Y-24806476D01*
X15333285Y-24615047D02*
X14583285Y-24615047D01*
X14690428Y-24678857D01*
X14761857Y-24742666D01*
X14797571Y-24806476D01*
X14583285Y-23817428D02*
X14583285Y-24136476D01*
X14940428Y-24168380D01*
X14904714Y-24136476D01*
X14869000Y-24072666D01*
X14869000Y-23913142D01*
X14904714Y-23849333D01*
X14940428Y-23817428D01*
X15011857Y-23785523D01*
X15190428Y-23785523D01*
X15261857Y-23817428D01*
X15297571Y-23849333D01*
X15333285Y-23913142D01*
X15333285Y-24072666D01*
X15297571Y-24136476D01*
X15261857Y-24168380D01*
X14547571Y-23019809D02*
X15511857Y-23594095D01*
X14940428Y-22573142D02*
X14976142Y-22477428D01*
X15011857Y-22445523D01*
X15083285Y-22413619D01*
X15190428Y-22413619D01*
X15261857Y-22445523D01*
X15297571Y-22477428D01*
X15333285Y-22541238D01*
X15333285Y-22796476D01*
X14583285Y-22796476D01*
X14583285Y-22573142D01*
X14619000Y-22509333D01*
X14654714Y-22477428D01*
X14726142Y-22445523D01*
X14797571Y-22445523D01*
X14869000Y-22477428D01*
X14904714Y-22509333D01*
X14940428Y-22573142D01*
X14940428Y-22796476D01*
X15333285Y-21775523D02*
X15333285Y-22158380D01*
X15333285Y-21966952D02*
X14583285Y-21966952D01*
X14690428Y-22030761D01*
X14761857Y-22094571D01*
X14797571Y-22158380D01*
X12569000Y-24726714D02*
X12569000Y-24407666D01*
X12783285Y-24790523D02*
X12033285Y-24567190D01*
X12783285Y-24343857D01*
X12033285Y-23992904D02*
X12033285Y-23929095D01*
X12069000Y-23865285D01*
X12104714Y-23833380D01*
X12176142Y-23801476D01*
X12319000Y-23769571D01*
X12497571Y-23769571D01*
X12640428Y-23801476D01*
X12711857Y-23833380D01*
X12747571Y-23865285D01*
X12783285Y-23929095D01*
X12783285Y-23992904D01*
X12747571Y-24056714D01*
X12711857Y-24088619D01*
X12640428Y-24120523D01*
X12497571Y-24152428D01*
X12319000Y-24152428D01*
X12176142Y-24120523D01*
X12104714Y-24088619D01*
X12069000Y-24056714D01*
X12033285Y-23992904D01*
X11997571Y-23003857D02*
X12961857Y-23578142D01*
X12390428Y-22557190D02*
X12390428Y-22780523D01*
X12783285Y-22780523D02*
X12033285Y-22780523D01*
X12033285Y-22461476D01*
X12033285Y-22270047D02*
X12033285Y-21823380D01*
X12783285Y-22110523D01*
X10019000Y-24726714D02*
X10019000Y-24407666D01*
X10233285Y-24790523D02*
X9483285Y-24567190D01*
X10233285Y-24343857D01*
X10233285Y-23769571D02*
X10233285Y-24152428D01*
X10233285Y-23961000D02*
X9483285Y-23961000D01*
X9590428Y-24024809D01*
X9661857Y-24088619D01*
X9697571Y-24152428D01*
X9447571Y-23003857D02*
X10411857Y-23578142D01*
X9840428Y-22557190D02*
X9840428Y-22780523D01*
X10233285Y-22780523D02*
X9483285Y-22780523D01*
X9483285Y-22461476D01*
X9483285Y-21919095D02*
X9483285Y-22046714D01*
X9519000Y-22110523D01*
X9554714Y-22142428D01*
X9661857Y-22206238D01*
X9804714Y-22238142D01*
X10090428Y-22238142D01*
X10161857Y-22206238D01*
X10197571Y-22174333D01*
X10233285Y-22110523D01*
X10233285Y-21982904D01*
X10197571Y-21919095D01*
X10161857Y-21887190D01*
X10090428Y-21855285D01*
X9911857Y-21855285D01*
X9840428Y-21887190D01*
X9804714Y-21919095D01*
X9769000Y-21982904D01*
X9769000Y-22110523D01*
X9804714Y-22174333D01*
X9840428Y-22206238D01*
X9911857Y-22238142D01*
X7519000Y-24726714D02*
X7519000Y-24407666D01*
X7733285Y-24790523D02*
X6983285Y-24567190D01*
X7733285Y-24343857D01*
X7054714Y-24152428D02*
X7019000Y-24120523D01*
X6983285Y-24056714D01*
X6983285Y-23897190D01*
X7019000Y-23833380D01*
X7054714Y-23801476D01*
X7126142Y-23769571D01*
X7197571Y-23769571D01*
X7304714Y-23801476D01*
X7733285Y-24184333D01*
X7733285Y-23769571D01*
X6947571Y-23003857D02*
X7911857Y-23578142D01*
X7340428Y-22557190D02*
X7340428Y-22780523D01*
X7733285Y-22780523D02*
X6983285Y-22780523D01*
X6983285Y-22461476D01*
X6983285Y-21887190D02*
X6983285Y-22206238D01*
X7340428Y-22238142D01*
X7304714Y-22206238D01*
X7269000Y-22142428D01*
X7269000Y-21982904D01*
X7304714Y-21919095D01*
X7340428Y-21887190D01*
X7411857Y-21855285D01*
X7590428Y-21855285D01*
X7661857Y-21887190D01*
X7697571Y-21919095D01*
X7733285Y-21982904D01*
X7733285Y-22142428D01*
X7697571Y-22206238D01*
X7661857Y-22238142D01*
X5019000Y-24726714D02*
X5019000Y-24407666D01*
X5233285Y-24790523D02*
X4483285Y-24567190D01*
X5233285Y-24343857D01*
X4483285Y-24184333D02*
X4483285Y-23769571D01*
X4769000Y-23992904D01*
X4769000Y-23897190D01*
X4804714Y-23833380D01*
X4840428Y-23801476D01*
X4911857Y-23769571D01*
X5090428Y-23769571D01*
X5161857Y-23801476D01*
X5197571Y-23833380D01*
X5233285Y-23897190D01*
X5233285Y-24088619D01*
X5197571Y-24152428D01*
X5161857Y-24184333D01*
X4447571Y-23003857D02*
X5411857Y-23578142D01*
X4840428Y-22557190D02*
X4840428Y-22780523D01*
X5233285Y-22780523D02*
X4483285Y-22780523D01*
X4483285Y-22461476D01*
X4733285Y-21919095D02*
X5233285Y-21919095D01*
X4447571Y-22078619D02*
X4983285Y-22238142D01*
X4983285Y-21823380D01*
X1783285Y-24804333D02*
X2533285Y-24581000D01*
X1783285Y-24357666D01*
X2461857Y-23751476D02*
X2497571Y-23783380D01*
X2533285Y-23879095D01*
X2533285Y-23942904D01*
X2497571Y-24038619D01*
X2426142Y-24102428D01*
X2354714Y-24134333D01*
X2211857Y-24166238D01*
X2104714Y-24166238D01*
X1961857Y-24134333D01*
X1890428Y-24102428D01*
X1819000Y-24038619D01*
X1783285Y-23942904D01*
X1783285Y-23879095D01*
X1819000Y-23783380D01*
X1854714Y-23751476D01*
X2461857Y-23081476D02*
X2497571Y-23113380D01*
X2533285Y-23209095D01*
X2533285Y-23272904D01*
X2497571Y-23368619D01*
X2426142Y-23432428D01*
X2354714Y-23464333D01*
X2211857Y-23496238D01*
X2104714Y-23496238D01*
X1961857Y-23464333D01*
X1890428Y-23432428D01*
X1819000Y-23368619D01*
X1783285Y-23272904D01*
X1783285Y-23209095D01*
X1819000Y-23113380D01*
X1854714Y-23081476D01*
X83285Y-24277904D02*
X-273857Y-24501238D01*
X83285Y-24660761D02*
X-666714Y-24660761D01*
X-666714Y-24405523D01*
X-631000Y-24341714D01*
X-595285Y-24309809D01*
X-523857Y-24277904D01*
X-416714Y-24277904D01*
X-345285Y-24309809D01*
X-309571Y-24341714D01*
X-273857Y-24405523D01*
X-273857Y-24660761D01*
X47571Y-24022666D02*
X83285Y-23926952D01*
X83285Y-23767428D01*
X47571Y-23703619D01*
X11857Y-23671714D01*
X-59571Y-23639809D01*
X-130999Y-23639809D01*
X-202428Y-23671714D01*
X-238142Y-23703619D01*
X-273857Y-23767428D01*
X-309571Y-23895047D01*
X-345285Y-23958857D01*
X-381000Y-23990761D01*
X-452428Y-24022666D01*
X-523857Y-24022666D01*
X-595285Y-23990761D01*
X-631000Y-23958857D01*
X-666714Y-23895047D01*
X-666714Y-23735523D01*
X-631000Y-23639809D01*
X-666714Y-23448380D02*
X-666714Y-23065523D01*
X83285Y-23256952D02*
X-666714Y-23256952D01*
X-3181000Y-24421476D02*
X-3216714Y-24485285D01*
X-3216714Y-24581000D01*
X-3181000Y-24676714D01*
X-3109571Y-24740523D01*
X-3038142Y-24772428D01*
X-2895285Y-24804333D01*
X-2788142Y-24804333D01*
X-2645285Y-24772428D01*
X-2573857Y-24740523D01*
X-2502428Y-24676714D01*
X-2466714Y-24581000D01*
X-2466714Y-24517190D01*
X-2502428Y-24421476D01*
X-2538142Y-24389571D01*
X-2788142Y-24389571D01*
X-2788142Y-24517190D01*
X-2466714Y-24102428D02*
X-3216714Y-24102428D01*
X-2466714Y-23719571D01*
X-3216714Y-23719571D01*
X-2466714Y-23400523D02*
X-3216714Y-23400523D01*
X-3216714Y-23241000D01*
X-3181000Y-23145285D01*
X-3109571Y-23081476D01*
X-3038142Y-23049571D01*
X-2895285Y-23017666D01*
X-2788142Y-23017666D01*
X-2645285Y-23049571D01*
X-2573857Y-23081476D01*
X-2502428Y-23145285D01*
X-2466714Y-23241000D01*
X-2466714Y-23400523D01*
X-5016714Y-24373619D02*
X-5373857Y-24596952D01*
X-5016714Y-24756476D02*
X-5766714Y-24756476D01*
X-5766714Y-24501238D01*
X-5731000Y-24437428D01*
X-5695285Y-24405523D01*
X-5623857Y-24373619D01*
X-5516714Y-24373619D01*
X-5445285Y-24405523D01*
X-5409571Y-24437428D01*
X-5373857Y-24501238D01*
X-5373857Y-24756476D01*
X-5231000Y-24118380D02*
X-5231000Y-23799333D01*
X-5016714Y-24182190D02*
X-5766714Y-23958857D01*
X-5016714Y-23735523D01*
X-5766714Y-23576000D02*
X-5016714Y-23416476D01*
X-5552428Y-23288857D01*
X-5016714Y-23161238D01*
X-5766714Y-23001714D01*
D10*
M02*
