G04 #@! TF.GenerationSoftware,KiCad,Pcbnew,(5.1.9-0-10_14)*
G04 #@! TF.CreationDate,2021-08-28T22:47:01+09:00*
G04 #@! TF.ProjectId,kbd-template,6b62642d-7465-46d7-906c-6174652e6b69,rev?*
G04 #@! TF.SameCoordinates,Original*
G04 #@! TF.FileFunction,Legend,Bot*
G04 #@! TF.FilePolarity,Positive*
%FSLAX46Y46*%
G04 Gerber Fmt 4.6, Leading zero omitted, Abs format (unit mm)*
G04 Created by KiCad (PCBNEW (5.1.9-0-10_14)) date 2021-08-28 22:47:01*
%MOMM*%
%LPD*%
G01*
G04 APERTURE LIST*
%ADD10C,0.300000*%
%ADD11C,0.800000*%
%ADD12C,3.000000*%
%ADD13C,0.500000*%
%ADD14C,1.000000*%
%ADD15C,3.500000*%
%ADD16C,0.150000*%
%ADD17C,0.400000*%
%ADD18C,0.100000*%
%ADD19C,0.120000*%
%ADD20C,0.200000*%
%ADD21C,0.125000*%
%ADD22C,0.187500*%
G04 APERTURE END LIST*
D10*
X15325000Y-42150000D02*
X15325000Y-42800000D01*
D11*
X14825000Y-39700000D02*
X14825000Y-41499999D01*
D12*
X13695000Y-43200000D02*
X13695000Y-40960000D01*
D13*
X5325000Y-41350000D02*
X6625000Y-41400000D01*
D14*
X5625000Y-44100000D02*
X5625000Y-41600000D01*
D15*
X6925000Y-42900000D02*
X13625000Y-42900000D01*
D16*
X5125000Y-41100000D02*
X5125000Y-44700000D01*
X5145000Y-42100000D02*
X5145000Y-44350000D01*
X15425000Y-42050000D02*
X15225000Y-42050000D01*
X15175000Y-43650000D02*
X15175000Y-39200000D01*
X15425000Y-42800000D02*
X15425000Y-42050000D01*
X15175000Y-39200000D02*
X12145000Y-39200000D01*
X9925000Y-41100000D02*
X5125000Y-41100000D01*
X5125000Y-44700000D02*
X13325001Y-44700000D01*
D13*
X14975000Y-39400000D02*
X12525000Y-39400000D01*
D17*
X5275000Y-44500000D02*
X6525000Y-44500000D01*
D16*
X12141318Y-39221471D02*
G75*
G02*
X9925000Y-41100000I-2151318J291471D01*
G01*
X15425000Y-42799999D02*
G75*
G02*
X13325001Y-44700000I-2000000J99999D01*
G01*
D14*
X12541318Y-39621471D02*
G75*
G02*
X10325000Y-41500000I-2151318J291471D01*
G01*
D17*
X11394000Y-12650000D02*
X10144000Y-12650000D01*
D13*
X1694000Y-17750000D02*
X4144000Y-17750000D01*
D16*
X11544000Y-12450000D02*
X3343999Y-12450000D01*
X6744000Y-16050000D02*
X11544000Y-16050000D01*
X1494000Y-17950000D02*
X4524000Y-17950000D01*
X1244000Y-14350000D02*
X1244000Y-15100000D01*
X1494000Y-13500000D02*
X1494000Y-17950000D01*
X1244000Y-15100000D02*
X1444000Y-15100000D01*
X11524000Y-15050000D02*
X11524000Y-12800000D01*
X11544000Y-16050000D02*
X11544000Y-12450000D01*
D15*
X9744000Y-14250000D02*
X3044000Y-14250000D01*
D14*
X11044000Y-13050000D02*
X11044000Y-15550000D01*
D13*
X11344000Y-15800000D02*
X10044000Y-15750000D01*
D12*
X2974000Y-13950000D02*
X2974000Y-16190000D01*
D11*
X1844000Y-17450000D02*
X1844000Y-15650001D01*
D10*
X1344000Y-15000000D02*
X1344000Y-14350000D01*
D16*
X4527682Y-17928529D02*
G75*
G02*
X6744000Y-16050000I2151318J-291471D01*
G01*
X1244000Y-14350001D02*
G75*
G02*
X3343999Y-12450000I2000000J-99999D01*
G01*
D14*
X4127682Y-17528529D02*
G75*
G02*
X6344000Y-15650000I2151318J-291471D01*
G01*
D17*
X9013000Y6400000D02*
X7763000Y6400000D01*
D13*
X-687000Y1300000D02*
X1763000Y1300000D01*
D16*
X9163000Y6600000D02*
X962999Y6600000D01*
X4363000Y3000000D02*
X9163000Y3000000D01*
X-887000Y1100000D02*
X2143000Y1100000D01*
X-1137000Y4700000D02*
X-1137000Y3950000D01*
X-887000Y5550000D02*
X-887000Y1100000D01*
X-1137000Y3950000D02*
X-937000Y3950000D01*
X9143000Y4000000D02*
X9143000Y6250000D01*
X9163000Y3000000D02*
X9163000Y6600000D01*
D15*
X7363000Y4800000D02*
X663000Y4800000D01*
D14*
X8663000Y6000000D02*
X8663000Y3500000D01*
D13*
X8963000Y3250000D02*
X7663000Y3300000D01*
D12*
X593000Y5100000D02*
X593000Y2860000D01*
D11*
X-537000Y1600000D02*
X-537000Y3399999D01*
D10*
X-1037000Y4050000D02*
X-1037000Y4700000D01*
D16*
X2146682Y1121471D02*
G75*
G02*
X4363000Y3000000I2151318J-291471D01*
G01*
X-1137000Y4699999D02*
G75*
G02*
X962999Y6600000I2000000J-99999D01*
G01*
D14*
X1746682Y1521471D02*
G75*
G02*
X3963000Y3400000I2151318J-291471D01*
G01*
D10*
X22775000Y4050000D02*
X22775000Y4700000D01*
D11*
X23275000Y1600000D02*
X23275000Y3399999D01*
D12*
X24405000Y5100000D02*
X24405000Y2860000D01*
D13*
X32775000Y3250000D02*
X31475000Y3300000D01*
D14*
X32475000Y6000000D02*
X32475000Y3500000D01*
D15*
X31175000Y4800000D02*
X24475000Y4800000D01*
D16*
X32975000Y3000000D02*
X32975000Y6600000D01*
X32955000Y4000000D02*
X32955000Y6250000D01*
X22675000Y3950000D02*
X22875000Y3950000D01*
X22925000Y5550000D02*
X22925000Y1100000D01*
X22675000Y4700000D02*
X22675000Y3950000D01*
X22925000Y1100000D02*
X25955000Y1100000D01*
X28175000Y3000000D02*
X32975000Y3000000D01*
X32975000Y6600000D02*
X24774999Y6600000D01*
D13*
X23125000Y1300000D02*
X25575000Y1300000D01*
D17*
X32825000Y6400000D02*
X31575000Y6400000D01*
D16*
X25958682Y1121471D02*
G75*
G02*
X28175000Y3000000I2151318J-291471D01*
G01*
X22675000Y4699999D02*
G75*
G02*
X24774999Y6600000I2000000J-99999D01*
G01*
D14*
X25558682Y1521471D02*
G75*
G02*
X27775000Y3400000I2151318J-291471D01*
G01*
D10*
X41825000Y4050000D02*
X41825000Y4700000D01*
D11*
X42325000Y1600000D02*
X42325000Y3399999D01*
D12*
X43455000Y5100000D02*
X43455000Y2860000D01*
D13*
X51825000Y3250000D02*
X50525000Y3300000D01*
D14*
X51525000Y6000000D02*
X51525000Y3500000D01*
D15*
X50225000Y4800000D02*
X43525000Y4800000D01*
D16*
X52025000Y3000000D02*
X52025000Y6600000D01*
X52005000Y4000000D02*
X52005000Y6250000D01*
X41725000Y3950000D02*
X41925000Y3950000D01*
X41975000Y5550000D02*
X41975000Y1100000D01*
X41725000Y4700000D02*
X41725000Y3950000D01*
X41975000Y1100000D02*
X45005000Y1100000D01*
X47225000Y3000000D02*
X52025000Y3000000D01*
X52025000Y6600000D02*
X43824999Y6600000D01*
D13*
X42175000Y1300000D02*
X44625000Y1300000D01*
D17*
X51875000Y6400000D02*
X50625000Y6400000D01*
D16*
X45008682Y1121471D02*
G75*
G02*
X47225000Y3000000I2151318J-291471D01*
G01*
X41725000Y4699999D02*
G75*
G02*
X43824999Y6600000I2000000J-99999D01*
G01*
D14*
X44608682Y1521471D02*
G75*
G02*
X46825000Y3400000I2151318J-291471D01*
G01*
D10*
X60875000Y4050000D02*
X60875000Y4700000D01*
D11*
X61375000Y1600000D02*
X61375000Y3399999D01*
D12*
X62505000Y5100000D02*
X62505000Y2860000D01*
D13*
X70875000Y3250000D02*
X69575000Y3300000D01*
D14*
X70575000Y6000000D02*
X70575000Y3500000D01*
D15*
X69275000Y4800000D02*
X62575000Y4800000D01*
D16*
X71075000Y3000000D02*
X71075000Y6600000D01*
X71055000Y4000000D02*
X71055000Y6250000D01*
X60775000Y3950000D02*
X60975000Y3950000D01*
X61025000Y5550000D02*
X61025000Y1100000D01*
X60775000Y4700000D02*
X60775000Y3950000D01*
X61025000Y1100000D02*
X64055000Y1100000D01*
X66275000Y3000000D02*
X71075000Y3000000D01*
X71075000Y6600000D02*
X62874999Y6600000D01*
D13*
X61225000Y1300000D02*
X63675000Y1300000D01*
D17*
X70925000Y6400000D02*
X69675000Y6400000D01*
D16*
X64058682Y1121471D02*
G75*
G02*
X66275000Y3000000I2151318J-291471D01*
G01*
X60775000Y4699999D02*
G75*
G02*
X62874999Y6600000I2000000J-99999D01*
G01*
D14*
X63658682Y1521471D02*
G75*
G02*
X65875000Y3400000I2151318J-291471D01*
G01*
D10*
X79925000Y4050000D02*
X79925000Y4700000D01*
D11*
X80425000Y1600000D02*
X80425000Y3399999D01*
D12*
X81555000Y5100000D02*
X81555000Y2860000D01*
D13*
X89925000Y3250000D02*
X88625000Y3300000D01*
D14*
X89625000Y6000000D02*
X89625000Y3500000D01*
D15*
X88325000Y4800000D02*
X81625000Y4800000D01*
D16*
X90125000Y3000000D02*
X90125000Y6600000D01*
X90105000Y4000000D02*
X90105000Y6250000D01*
X79825000Y3950000D02*
X80025000Y3950000D01*
X80075000Y5550000D02*
X80075000Y1100000D01*
X79825000Y4700000D02*
X79825000Y3950000D01*
X80075000Y1100000D02*
X83105000Y1100000D01*
X85325000Y3000000D02*
X90125000Y3000000D01*
X90125000Y6600000D02*
X81924999Y6600000D01*
D13*
X80275000Y1300000D02*
X82725000Y1300000D01*
D17*
X89975000Y6400000D02*
X88725000Y6400000D01*
D16*
X83108682Y1121471D02*
G75*
G02*
X85325000Y3000000I2151318J-291471D01*
G01*
X79825000Y4699999D02*
G75*
G02*
X81924999Y6600000I2000000J-99999D01*
G01*
D14*
X82708682Y1521471D02*
G75*
G02*
X84925000Y3400000I2151318J-291471D01*
G01*
D10*
X98975000Y4050000D02*
X98975000Y4700000D01*
D11*
X99475000Y1600000D02*
X99475000Y3399999D01*
D12*
X100605000Y5100000D02*
X100605000Y2860000D01*
D13*
X108975000Y3250000D02*
X107675000Y3300000D01*
D14*
X108675000Y6000000D02*
X108675000Y3500000D01*
D15*
X107375000Y4800000D02*
X100675000Y4800000D01*
D16*
X109175000Y3000000D02*
X109175000Y6600000D01*
X109155000Y4000000D02*
X109155000Y6250000D01*
X98875000Y3950000D02*
X99075000Y3950000D01*
X99125000Y5550000D02*
X99125000Y1100000D01*
X98875000Y4700000D02*
X98875000Y3950000D01*
X99125000Y1100000D02*
X102155000Y1100000D01*
X104375000Y3000000D02*
X109175000Y3000000D01*
X109175000Y6600000D02*
X100974999Y6600000D01*
D13*
X99325000Y1300000D02*
X101775000Y1300000D01*
D17*
X109025000Y6400000D02*
X107775000Y6400000D01*
D16*
X102158682Y1121471D02*
G75*
G02*
X104375000Y3000000I2151318J-291471D01*
G01*
X98875000Y4699999D02*
G75*
G02*
X100974999Y6600000I2000000J-99999D01*
G01*
D14*
X101758682Y1521471D02*
G75*
G02*
X103975000Y3400000I2151318J-291471D01*
G01*
D10*
X146600000Y4050000D02*
X146600000Y4700000D01*
D11*
X147100000Y1600000D02*
X147100000Y3399999D01*
D12*
X148230000Y5100000D02*
X148230000Y2860000D01*
D13*
X156600000Y3250000D02*
X155300000Y3300000D01*
D14*
X156300000Y6000000D02*
X156300000Y3500000D01*
D15*
X155000000Y4800000D02*
X148300000Y4800000D01*
D16*
X156800000Y3000000D02*
X156800000Y6600000D01*
X156780000Y4000000D02*
X156780000Y6250000D01*
X146500000Y3950000D02*
X146700000Y3950000D01*
X146750000Y5550000D02*
X146750000Y1100000D01*
X146500000Y4700000D02*
X146500000Y3950000D01*
X146750000Y1100000D02*
X149780000Y1100000D01*
X152000000Y3000000D02*
X156800000Y3000000D01*
X156800000Y6600000D02*
X148599999Y6600000D01*
D13*
X146950000Y1300000D02*
X149400000Y1300000D01*
D17*
X156650000Y6400000D02*
X155400000Y6400000D01*
D16*
X149783682Y1121471D02*
G75*
G02*
X152000000Y3000000I2151318J-291471D01*
G01*
X146500000Y4699999D02*
G75*
G02*
X148599999Y6600000I2000000J-99999D01*
G01*
D14*
X149383682Y1521471D02*
G75*
G02*
X151600000Y3400000I2151318J-291471D01*
G01*
D10*
X165650000Y4050000D02*
X165650000Y4700000D01*
D11*
X166150000Y1600000D02*
X166150000Y3399999D01*
D12*
X167280000Y5100000D02*
X167280000Y2860000D01*
D13*
X175650000Y3250000D02*
X174350000Y3300000D01*
D14*
X175350000Y6000000D02*
X175350000Y3500000D01*
D15*
X174050000Y4800000D02*
X167350000Y4800000D01*
D16*
X175850000Y3000000D02*
X175850000Y6600000D01*
X175830000Y4000000D02*
X175830000Y6250000D01*
X165550000Y3950000D02*
X165750000Y3950000D01*
X165800000Y5550000D02*
X165800000Y1100000D01*
X165550000Y4700000D02*
X165550000Y3950000D01*
X165800000Y1100000D02*
X168830000Y1100000D01*
X171050000Y3000000D02*
X175850000Y3000000D01*
X175850000Y6600000D02*
X167649999Y6600000D01*
D13*
X166000000Y1300000D02*
X168450000Y1300000D01*
D17*
X175700000Y6400000D02*
X174450000Y6400000D01*
D16*
X168833682Y1121471D02*
G75*
G02*
X171050000Y3000000I2151318J-291471D01*
G01*
X165550000Y4699999D02*
G75*
G02*
X167649999Y6600000I2000000J-99999D01*
G01*
D14*
X168433682Y1521471D02*
G75*
G02*
X170650000Y3400000I2151318J-291471D01*
G01*
D10*
X184700000Y4050000D02*
X184700000Y4700000D01*
D11*
X185200000Y1600000D02*
X185200000Y3399999D01*
D12*
X186330000Y5100000D02*
X186330000Y2860000D01*
D13*
X194700000Y3250000D02*
X193400000Y3300000D01*
D14*
X194400000Y6000000D02*
X194400000Y3500000D01*
D15*
X193100000Y4800000D02*
X186400000Y4800000D01*
D16*
X194900000Y3000000D02*
X194900000Y6600000D01*
X194880000Y4000000D02*
X194880000Y6250000D01*
X184600000Y3950000D02*
X184800000Y3950000D01*
X184850000Y5550000D02*
X184850000Y1100000D01*
X184600000Y4700000D02*
X184600000Y3950000D01*
X184850000Y1100000D02*
X187880000Y1100000D01*
X190100000Y3000000D02*
X194900000Y3000000D01*
X194900000Y6600000D02*
X186699999Y6600000D01*
D13*
X185050000Y1300000D02*
X187500000Y1300000D01*
D17*
X194750000Y6400000D02*
X193500000Y6400000D01*
D16*
X187883682Y1121471D02*
G75*
G02*
X190100000Y3000000I2151318J-291471D01*
G01*
X184600000Y4699999D02*
G75*
G02*
X186699999Y6600000I2000000J-99999D01*
G01*
D14*
X187483682Y1521471D02*
G75*
G02*
X189700000Y3400000I2151318J-291471D01*
G01*
D10*
X203750000Y4050000D02*
X203750000Y4700000D01*
D11*
X204250000Y1600000D02*
X204250000Y3399999D01*
D12*
X205380000Y5100000D02*
X205380000Y2860000D01*
D13*
X213750000Y3250000D02*
X212450000Y3300000D01*
D14*
X213450000Y6000000D02*
X213450000Y3500000D01*
D15*
X212150000Y4800000D02*
X205450000Y4800000D01*
D16*
X213950000Y3000000D02*
X213950000Y6600000D01*
X213930000Y4000000D02*
X213930000Y6250000D01*
X203650000Y3950000D02*
X203850000Y3950000D01*
X203900000Y5550000D02*
X203900000Y1100000D01*
X203650000Y4700000D02*
X203650000Y3950000D01*
X203900000Y1100000D02*
X206930000Y1100000D01*
X209150000Y3000000D02*
X213950000Y3000000D01*
X213950000Y6600000D02*
X205749999Y6600000D01*
D13*
X204100000Y1300000D02*
X206550000Y1300000D01*
D17*
X213800000Y6400000D02*
X212550000Y6400000D01*
D16*
X206933682Y1121471D02*
G75*
G02*
X209150000Y3000000I2151318J-291471D01*
G01*
X203650000Y4699999D02*
G75*
G02*
X205749999Y6600000I2000000J-99999D01*
G01*
D14*
X206533682Y1521471D02*
G75*
G02*
X208750000Y3400000I2151318J-291471D01*
G01*
D10*
X222800000Y4050000D02*
X222800000Y4700000D01*
D11*
X223300000Y1600000D02*
X223300000Y3399999D01*
D12*
X224430000Y5100000D02*
X224430000Y2860000D01*
D13*
X232800000Y3250000D02*
X231500000Y3300000D01*
D14*
X232500000Y6000000D02*
X232500000Y3500000D01*
D15*
X231200000Y4800000D02*
X224500000Y4800000D01*
D16*
X233000000Y3000000D02*
X233000000Y6600000D01*
X232980000Y4000000D02*
X232980000Y6250000D01*
X222700000Y3950000D02*
X222900000Y3950000D01*
X222950000Y5550000D02*
X222950000Y1100000D01*
X222700000Y4700000D02*
X222700000Y3950000D01*
X222950000Y1100000D02*
X225980000Y1100000D01*
X228200000Y3000000D02*
X233000000Y3000000D01*
X233000000Y6600000D02*
X224799999Y6600000D01*
D13*
X223150000Y1300000D02*
X225600000Y1300000D01*
D17*
X232850000Y6400000D02*
X231600000Y6400000D01*
D16*
X225983682Y1121471D02*
G75*
G02*
X228200000Y3000000I2151318J-291471D01*
G01*
X222700000Y4699999D02*
G75*
G02*
X224799999Y6600000I2000000J-99999D01*
G01*
D14*
X225583682Y1521471D02*
G75*
G02*
X227800000Y3400000I2151318J-291471D01*
G01*
D10*
X27537500Y-15000000D02*
X27537500Y-14350000D01*
D11*
X28037500Y-17450000D02*
X28037500Y-15650001D01*
D12*
X29167500Y-13950000D02*
X29167500Y-16190000D01*
D13*
X37537500Y-15800000D02*
X36237500Y-15750000D01*
D14*
X37237500Y-13050000D02*
X37237500Y-15550000D01*
D15*
X35937500Y-14250000D02*
X29237500Y-14250000D01*
D16*
X37737500Y-16050000D02*
X37737500Y-12450000D01*
X37717500Y-15050000D02*
X37717500Y-12800000D01*
X27437500Y-15100000D02*
X27637500Y-15100000D01*
X27687500Y-13500000D02*
X27687500Y-17950000D01*
X27437500Y-14350000D02*
X27437500Y-15100000D01*
X27687500Y-17950000D02*
X30717500Y-17950000D01*
X32937500Y-16050000D02*
X37737500Y-16050000D01*
X37737500Y-12450000D02*
X29537499Y-12450000D01*
D13*
X27887500Y-17750000D02*
X30337500Y-17750000D01*
D17*
X37587500Y-12650000D02*
X36337500Y-12650000D01*
D16*
X30721182Y-17928529D02*
G75*
G02*
X32937500Y-16050000I2151318J-291471D01*
G01*
X27437500Y-14350001D02*
G75*
G02*
X29537499Y-12450000I2000000J-99999D01*
G01*
D14*
X30321182Y-17528529D02*
G75*
G02*
X32537500Y-15650000I2151318J-291471D01*
G01*
D10*
X46587500Y-15000000D02*
X46587500Y-14350000D01*
D11*
X47087500Y-17450000D02*
X47087500Y-15650001D01*
D12*
X48217500Y-13950000D02*
X48217500Y-16190000D01*
D13*
X56587500Y-15800000D02*
X55287500Y-15750000D01*
D14*
X56287500Y-13050000D02*
X56287500Y-15550000D01*
D15*
X54987500Y-14250000D02*
X48287500Y-14250000D01*
D16*
X56787500Y-16050000D02*
X56787500Y-12450000D01*
X56767500Y-15050000D02*
X56767500Y-12800000D01*
X46487500Y-15100000D02*
X46687500Y-15100000D01*
X46737500Y-13500000D02*
X46737500Y-17950000D01*
X46487500Y-14350000D02*
X46487500Y-15100000D01*
X46737500Y-17950000D02*
X49767500Y-17950000D01*
X51987500Y-16050000D02*
X56787500Y-16050000D01*
X56787500Y-12450000D02*
X48587499Y-12450000D01*
D13*
X46937500Y-17750000D02*
X49387500Y-17750000D01*
D17*
X56637500Y-12650000D02*
X55387500Y-12650000D01*
D16*
X49771182Y-17928529D02*
G75*
G02*
X51987500Y-16050000I2151318J-291471D01*
G01*
X46487500Y-14350001D02*
G75*
G02*
X48587499Y-12450000I2000000J-99999D01*
G01*
D14*
X49371182Y-17528529D02*
G75*
G02*
X51587500Y-15650000I2151318J-291471D01*
G01*
D10*
X65637500Y-15000000D02*
X65637500Y-14350000D01*
D11*
X66137500Y-17450000D02*
X66137500Y-15650001D01*
D12*
X67267500Y-13950000D02*
X67267500Y-16190000D01*
D13*
X75637500Y-15800000D02*
X74337500Y-15750000D01*
D14*
X75337500Y-13050000D02*
X75337500Y-15550000D01*
D15*
X74037500Y-14250000D02*
X67337500Y-14250000D01*
D16*
X75837500Y-16050000D02*
X75837500Y-12450000D01*
X75817500Y-15050000D02*
X75817500Y-12800000D01*
X65537500Y-15100000D02*
X65737500Y-15100000D01*
X65787500Y-13500000D02*
X65787500Y-17950000D01*
X65537500Y-14350000D02*
X65537500Y-15100000D01*
X65787500Y-17950000D02*
X68817500Y-17950000D01*
X71037500Y-16050000D02*
X75837500Y-16050000D01*
X75837500Y-12450000D02*
X67637499Y-12450000D01*
D13*
X65987500Y-17750000D02*
X68437500Y-17750000D01*
D17*
X75687500Y-12650000D02*
X74437500Y-12650000D01*
D16*
X68821182Y-17928529D02*
G75*
G02*
X71037500Y-16050000I2151318J-291471D01*
G01*
X65537500Y-14350001D02*
G75*
G02*
X67637499Y-12450000I2000000J-99999D01*
G01*
D14*
X68421182Y-17528529D02*
G75*
G02*
X70637500Y-15650000I2151318J-291471D01*
G01*
D10*
X84687500Y-15000000D02*
X84687500Y-14350000D01*
D11*
X85187500Y-17450000D02*
X85187500Y-15650001D01*
D12*
X86317500Y-13950000D02*
X86317500Y-16190000D01*
D13*
X94687500Y-15800000D02*
X93387500Y-15750000D01*
D14*
X94387500Y-13050000D02*
X94387500Y-15550000D01*
D15*
X93087500Y-14250000D02*
X86387500Y-14250000D01*
D16*
X94887500Y-16050000D02*
X94887500Y-12450000D01*
X94867500Y-15050000D02*
X94867500Y-12800000D01*
X84587500Y-15100000D02*
X84787500Y-15100000D01*
X84837500Y-13500000D02*
X84837500Y-17950000D01*
X84587500Y-14350000D02*
X84587500Y-15100000D01*
X84837500Y-17950000D02*
X87867500Y-17950000D01*
X90087500Y-16050000D02*
X94887500Y-16050000D01*
X94887500Y-12450000D02*
X86687499Y-12450000D01*
D13*
X85037500Y-17750000D02*
X87487500Y-17750000D01*
D17*
X94737500Y-12650000D02*
X93487500Y-12650000D01*
D16*
X87871182Y-17928529D02*
G75*
G02*
X90087500Y-16050000I2151318J-291471D01*
G01*
X84587500Y-14350001D02*
G75*
G02*
X86687499Y-12450000I2000000J-99999D01*
G01*
D14*
X87471182Y-17528529D02*
G75*
G02*
X89687500Y-15650000I2151318J-291471D01*
G01*
D10*
X103738000Y-15000000D02*
X103738000Y-14350000D01*
D11*
X104238000Y-17450000D02*
X104238000Y-15650001D01*
D12*
X105368000Y-13950000D02*
X105368000Y-16190000D01*
D13*
X113738000Y-15800000D02*
X112438000Y-15750000D01*
D14*
X113438000Y-13050000D02*
X113438000Y-15550000D01*
D15*
X112138000Y-14250000D02*
X105438000Y-14250000D01*
D16*
X113938000Y-16050000D02*
X113938000Y-12450000D01*
X113918000Y-15050000D02*
X113918000Y-12800000D01*
X103638000Y-15100000D02*
X103838000Y-15100000D01*
X103888000Y-13500000D02*
X103888000Y-17950000D01*
X103638000Y-14350000D02*
X103638000Y-15100000D01*
X103888000Y-17950000D02*
X106918000Y-17950000D01*
X109138000Y-16050000D02*
X113938000Y-16050000D01*
X113938000Y-12450000D02*
X105737999Y-12450000D01*
D13*
X104088000Y-17750000D02*
X106538000Y-17750000D01*
D17*
X113788000Y-12650000D02*
X112538000Y-12650000D01*
D16*
X106921682Y-17928529D02*
G75*
G02*
X109138000Y-16050000I2151318J-291471D01*
G01*
X103638000Y-14350001D02*
G75*
G02*
X105737999Y-12450000I2000000J-99999D01*
G01*
D14*
X106521682Y-17528529D02*
G75*
G02*
X108738000Y-15650000I2151318J-291471D01*
G01*
D10*
X146600000Y-15000000D02*
X146600000Y-14350000D01*
D11*
X147100000Y-17450000D02*
X147100000Y-15650001D01*
D12*
X148230000Y-13950000D02*
X148230000Y-16190000D01*
D13*
X156600000Y-15800000D02*
X155300000Y-15750000D01*
D14*
X156300000Y-13050000D02*
X156300000Y-15550000D01*
D15*
X155000000Y-14250000D02*
X148300000Y-14250000D01*
D16*
X156800000Y-16050000D02*
X156800000Y-12450000D01*
X156780000Y-15050000D02*
X156780000Y-12800000D01*
X146500000Y-15100000D02*
X146700000Y-15100000D01*
X146750000Y-13500000D02*
X146750000Y-17950000D01*
X146500000Y-14350000D02*
X146500000Y-15100000D01*
X146750000Y-17950000D02*
X149780000Y-17950000D01*
X152000000Y-16050000D02*
X156800000Y-16050000D01*
X156800000Y-12450000D02*
X148599999Y-12450000D01*
D13*
X146950000Y-17750000D02*
X149400000Y-17750000D01*
D17*
X156650000Y-12650000D02*
X155400000Y-12650000D01*
D16*
X149783682Y-17928529D02*
G75*
G02*
X152000000Y-16050000I2151318J-291471D01*
G01*
X146500000Y-14350001D02*
G75*
G02*
X148599999Y-12450000I2000000J-99999D01*
G01*
D14*
X149383682Y-17528529D02*
G75*
G02*
X151600000Y-15650000I2151318J-291471D01*
G01*
D10*
X165650000Y-15000000D02*
X165650000Y-14350000D01*
D11*
X166150000Y-17450000D02*
X166150000Y-15650001D01*
D12*
X167280000Y-13950000D02*
X167280000Y-16190000D01*
D13*
X175650000Y-15800000D02*
X174350000Y-15750000D01*
D14*
X175350000Y-13050000D02*
X175350000Y-15550000D01*
D15*
X174050000Y-14250000D02*
X167350000Y-14250000D01*
D16*
X175850000Y-16050000D02*
X175850000Y-12450000D01*
X175830000Y-15050000D02*
X175830000Y-12800000D01*
X165550000Y-15100000D02*
X165750000Y-15100000D01*
X165800000Y-13500000D02*
X165800000Y-17950000D01*
X165550000Y-14350000D02*
X165550000Y-15100000D01*
X165800000Y-17950000D02*
X168830000Y-17950000D01*
X171050000Y-16050000D02*
X175850000Y-16050000D01*
X175850000Y-12450000D02*
X167649999Y-12450000D01*
D13*
X166000000Y-17750000D02*
X168450000Y-17750000D01*
D17*
X175700000Y-12650000D02*
X174450000Y-12650000D01*
D16*
X168833682Y-17928529D02*
G75*
G02*
X171050000Y-16050000I2151318J-291471D01*
G01*
X165550000Y-14350001D02*
G75*
G02*
X167649999Y-12450000I2000000J-99999D01*
G01*
D14*
X168433682Y-17528529D02*
G75*
G02*
X170650000Y-15650000I2151318J-291471D01*
G01*
D10*
X184700000Y-15000000D02*
X184700000Y-14350000D01*
D11*
X185200000Y-17450000D02*
X185200000Y-15650001D01*
D12*
X186330000Y-13950000D02*
X186330000Y-16190000D01*
D13*
X194700000Y-15800000D02*
X193400000Y-15750000D01*
D14*
X194400000Y-13050000D02*
X194400000Y-15550000D01*
D15*
X193100000Y-14250000D02*
X186400000Y-14250000D01*
D16*
X194900000Y-16050000D02*
X194900000Y-12450000D01*
X194880000Y-15050000D02*
X194880000Y-12800000D01*
X184600000Y-15100000D02*
X184800000Y-15100000D01*
X184850000Y-13500000D02*
X184850000Y-17950000D01*
X184600000Y-14350000D02*
X184600000Y-15100000D01*
X184850000Y-17950000D02*
X187880000Y-17950000D01*
X190100000Y-16050000D02*
X194900000Y-16050000D01*
X194900000Y-12450000D02*
X186699999Y-12450000D01*
D13*
X185050000Y-17750000D02*
X187500000Y-17750000D01*
D17*
X194750000Y-12650000D02*
X193500000Y-12650000D01*
D16*
X187883682Y-17928529D02*
G75*
G02*
X190100000Y-16050000I2151318J-291471D01*
G01*
X184600000Y-14350001D02*
G75*
G02*
X186699999Y-12450000I2000000J-99999D01*
G01*
D14*
X187483682Y-17528529D02*
G75*
G02*
X189700000Y-15650000I2151318J-291471D01*
G01*
D10*
X203750000Y-15000000D02*
X203750000Y-14350000D01*
D11*
X204250000Y-17450000D02*
X204250000Y-15650001D01*
D12*
X205380000Y-13950000D02*
X205380000Y-16190000D01*
D13*
X213750000Y-15800000D02*
X212450000Y-15750000D01*
D14*
X213450000Y-13050000D02*
X213450000Y-15550000D01*
D15*
X212150000Y-14250000D02*
X205450000Y-14250000D01*
D16*
X213950000Y-16050000D02*
X213950000Y-12450000D01*
X213930000Y-15050000D02*
X213930000Y-12800000D01*
X203650000Y-15100000D02*
X203850000Y-15100000D01*
X203900000Y-13500000D02*
X203900000Y-17950000D01*
X203650000Y-14350000D02*
X203650000Y-15100000D01*
X203900000Y-17950000D02*
X206930000Y-17950000D01*
X209150000Y-16050000D02*
X213950000Y-16050000D01*
X213950000Y-12450000D02*
X205749999Y-12450000D01*
D13*
X204100000Y-17750000D02*
X206550000Y-17750000D01*
D17*
X213800000Y-12650000D02*
X212550000Y-12650000D01*
D16*
X206933682Y-17928529D02*
G75*
G02*
X209150000Y-16050000I2151318J-291471D01*
G01*
X203650000Y-14350001D02*
G75*
G02*
X205749999Y-12450000I2000000J-99999D01*
G01*
D14*
X206533682Y-17528529D02*
G75*
G02*
X208750000Y-15650000I2151318J-291471D01*
G01*
D10*
X222800000Y-15000000D02*
X222800000Y-14350000D01*
D11*
X223300000Y-17450000D02*
X223300000Y-15650001D01*
D12*
X224430000Y-13950000D02*
X224430000Y-16190000D01*
D13*
X232800000Y-15800000D02*
X231500000Y-15750000D01*
D14*
X232500000Y-13050000D02*
X232500000Y-15550000D01*
D15*
X231200000Y-14250000D02*
X224500000Y-14250000D01*
D16*
X233000000Y-16050000D02*
X233000000Y-12450000D01*
X232980000Y-15050000D02*
X232980000Y-12800000D01*
X222700000Y-15100000D02*
X222900000Y-15100000D01*
X222950000Y-13500000D02*
X222950000Y-17950000D01*
X222700000Y-14350000D02*
X222700000Y-15100000D01*
X222950000Y-17950000D02*
X225980000Y-17950000D01*
X228200000Y-16050000D02*
X233000000Y-16050000D01*
X233000000Y-12450000D02*
X224799999Y-12450000D01*
D13*
X223150000Y-17750000D02*
X225600000Y-17750000D01*
D17*
X232850000Y-12650000D02*
X231600000Y-12650000D01*
D16*
X225983682Y-17928529D02*
G75*
G02*
X228200000Y-16050000I2151318J-291471D01*
G01*
X222700000Y-14350001D02*
G75*
G02*
X224799999Y-12450000I2000000J-99999D01*
G01*
D14*
X225583682Y-17528529D02*
G75*
G02*
X227800000Y-15650000I2151318J-291471D01*
G01*
D10*
X43900000Y-42150000D02*
X43900000Y-42800000D01*
D11*
X43400000Y-39700000D02*
X43400000Y-41499999D01*
D12*
X42270000Y-43200000D02*
X42270000Y-40960000D01*
D13*
X33900000Y-41350000D02*
X35200000Y-41400000D01*
D14*
X34200000Y-44100000D02*
X34200000Y-41600000D01*
D15*
X35500000Y-42900000D02*
X42200000Y-42900000D01*
D16*
X33700000Y-41100000D02*
X33700000Y-44700000D01*
X33720000Y-42100000D02*
X33720000Y-44350000D01*
X44000000Y-42050000D02*
X43800000Y-42050000D01*
X43750000Y-43650000D02*
X43750000Y-39200000D01*
X44000000Y-42800000D02*
X44000000Y-42050000D01*
X43750000Y-39200000D02*
X40720000Y-39200000D01*
X38500000Y-41100000D02*
X33700000Y-41100000D01*
X33700000Y-44700000D02*
X41900001Y-44700000D01*
D13*
X43550000Y-39400000D02*
X41100000Y-39400000D01*
D17*
X33850000Y-44500000D02*
X35100000Y-44500000D01*
D16*
X40716318Y-39221471D02*
G75*
G02*
X38500000Y-41100000I-2151318J291471D01*
G01*
X44000000Y-42799999D02*
G75*
G02*
X41900001Y-44700000I-2000000J99999D01*
G01*
D14*
X41116318Y-39621471D02*
G75*
G02*
X38900000Y-41500000I-2151318J291471D01*
G01*
D10*
X62950000Y-42150000D02*
X62950000Y-42800000D01*
D11*
X62450000Y-39700000D02*
X62450000Y-41499999D01*
D12*
X61320000Y-43200000D02*
X61320000Y-40960000D01*
D13*
X52950000Y-41350000D02*
X54250000Y-41400000D01*
D14*
X53250000Y-44100000D02*
X53250000Y-41600000D01*
D15*
X54550000Y-42900000D02*
X61250000Y-42900000D01*
D16*
X52750000Y-41100000D02*
X52750000Y-44700000D01*
X52770000Y-42100000D02*
X52770000Y-44350000D01*
X63050000Y-42050000D02*
X62850000Y-42050000D01*
X62800000Y-43650000D02*
X62800000Y-39200000D01*
X63050000Y-42800000D02*
X63050000Y-42050000D01*
X62800000Y-39200000D02*
X59770000Y-39200000D01*
X57550000Y-41100000D02*
X52750000Y-41100000D01*
X52750000Y-44700000D02*
X60950001Y-44700000D01*
D13*
X62600000Y-39400000D02*
X60150000Y-39400000D01*
D17*
X52900000Y-44500000D02*
X54150000Y-44500000D01*
D16*
X59766318Y-39221471D02*
G75*
G02*
X57550000Y-41100000I-2151318J291471D01*
G01*
X63050000Y-42799999D02*
G75*
G02*
X60950001Y-44700000I-2000000J99999D01*
G01*
D14*
X60166318Y-39621471D02*
G75*
G02*
X57950000Y-41500000I-2151318J291471D01*
G01*
D10*
X82000000Y-42150000D02*
X82000000Y-42800000D01*
D11*
X81500000Y-39700000D02*
X81500000Y-41499999D01*
D12*
X80370000Y-43200000D02*
X80370000Y-40960000D01*
D13*
X72000000Y-41350000D02*
X73300000Y-41400000D01*
D14*
X72300000Y-44100000D02*
X72300000Y-41600000D01*
D15*
X73600000Y-42900000D02*
X80300000Y-42900000D01*
D16*
X71800000Y-41100000D02*
X71800000Y-44700000D01*
X71820000Y-42100000D02*
X71820000Y-44350000D01*
X82100000Y-42050000D02*
X81900000Y-42050000D01*
X81850000Y-43650000D02*
X81850000Y-39200000D01*
X82100000Y-42800000D02*
X82100000Y-42050000D01*
X81850000Y-39200000D02*
X78820000Y-39200000D01*
X76600000Y-41100000D02*
X71800000Y-41100000D01*
X71800000Y-44700000D02*
X80000001Y-44700000D01*
D13*
X81650000Y-39400000D02*
X79200000Y-39400000D01*
D17*
X71950000Y-44500000D02*
X73200000Y-44500000D01*
D16*
X78816318Y-39221471D02*
G75*
G02*
X76600000Y-41100000I-2151318J291471D01*
G01*
X82100000Y-42799999D02*
G75*
G02*
X80000001Y-44700000I-2000000J99999D01*
G01*
D14*
X79216318Y-39621471D02*
G75*
G02*
X77000000Y-41500000I-2151318J291471D01*
G01*
D10*
X101050000Y-42150000D02*
X101050000Y-42800000D01*
D11*
X100550000Y-39700000D02*
X100550000Y-41499999D01*
D12*
X99420000Y-43200000D02*
X99420000Y-40960000D01*
D13*
X91050000Y-41350000D02*
X92350000Y-41400000D01*
D14*
X91350000Y-44100000D02*
X91350000Y-41600000D01*
D15*
X92650000Y-42900000D02*
X99350000Y-42900000D01*
D16*
X90850000Y-41100000D02*
X90850000Y-44700000D01*
X90870000Y-42100000D02*
X90870000Y-44350000D01*
X101150000Y-42050000D02*
X100950000Y-42050000D01*
X100900000Y-43650000D02*
X100900000Y-39200000D01*
X101150000Y-42800000D02*
X101150000Y-42050000D01*
X100900000Y-39200000D02*
X97870000Y-39200000D01*
X95650000Y-41100000D02*
X90850000Y-41100000D01*
X90850000Y-44700000D02*
X99050001Y-44700000D01*
D13*
X100700000Y-39400000D02*
X98250000Y-39400000D01*
D17*
X91000000Y-44500000D02*
X92250000Y-44500000D01*
D16*
X97866318Y-39221471D02*
G75*
G02*
X95650000Y-41100000I-2151318J291471D01*
G01*
X101150000Y-42799999D02*
G75*
G02*
X99050001Y-44700000I-2000000J99999D01*
G01*
D14*
X98266318Y-39621471D02*
G75*
G02*
X96050000Y-41500000I-2151318J291471D01*
G01*
D10*
X120100000Y-42150000D02*
X120100000Y-42800000D01*
D11*
X119600000Y-39700000D02*
X119600000Y-41499999D01*
D12*
X118470000Y-43200000D02*
X118470000Y-40960000D01*
D13*
X110100000Y-41350000D02*
X111400000Y-41400000D01*
D14*
X110400000Y-44100000D02*
X110400000Y-41600000D01*
D15*
X111700000Y-42900000D02*
X118400000Y-42900000D01*
D16*
X109900000Y-41100000D02*
X109900000Y-44700000D01*
X109920000Y-42100000D02*
X109920000Y-44350000D01*
X120200000Y-42050000D02*
X120000000Y-42050000D01*
X119950000Y-43650000D02*
X119950000Y-39200000D01*
X120200000Y-42800000D02*
X120200000Y-42050000D01*
X119950000Y-39200000D02*
X116920000Y-39200000D01*
X114700000Y-41100000D02*
X109900000Y-41100000D01*
X109900000Y-44700000D02*
X118100001Y-44700000D01*
D13*
X119750000Y-39400000D02*
X117300000Y-39400000D01*
D17*
X110050000Y-44500000D02*
X111300000Y-44500000D01*
D16*
X116916318Y-39221471D02*
G75*
G02*
X114700000Y-41100000I-2151318J291471D01*
G01*
X120200000Y-42799999D02*
G75*
G02*
X118100001Y-44700000I-2000000J99999D01*
G01*
D14*
X117316318Y-39621471D02*
G75*
G02*
X115100000Y-41500000I-2151318J291471D01*
G01*
D10*
X158200000Y-42150000D02*
X158200000Y-42800000D01*
D11*
X157700000Y-39700000D02*
X157700000Y-41499999D01*
D12*
X156570000Y-43200000D02*
X156570000Y-40960000D01*
D13*
X148200000Y-41350000D02*
X149500000Y-41400000D01*
D14*
X148500000Y-44100000D02*
X148500000Y-41600000D01*
D15*
X149800000Y-42900000D02*
X156500000Y-42900000D01*
D16*
X148000000Y-41100000D02*
X148000000Y-44700000D01*
X148020000Y-42100000D02*
X148020000Y-44350000D01*
X158300000Y-42050000D02*
X158100000Y-42050000D01*
X158050000Y-43650000D02*
X158050000Y-39200000D01*
X158300000Y-42800000D02*
X158300000Y-42050000D01*
X158050000Y-39200000D02*
X155020000Y-39200000D01*
X152800000Y-41100000D02*
X148000000Y-41100000D01*
X148000000Y-44700000D02*
X156200001Y-44700000D01*
D13*
X157850000Y-39400000D02*
X155400000Y-39400000D01*
D17*
X148150000Y-44500000D02*
X149400000Y-44500000D01*
D16*
X155016318Y-39221471D02*
G75*
G02*
X152800000Y-41100000I-2151318J291471D01*
G01*
X158300000Y-42799999D02*
G75*
G02*
X156200001Y-44700000I-2000000J99999D01*
G01*
D14*
X155416318Y-39621471D02*
G75*
G02*
X153200000Y-41500000I-2151318J291471D01*
G01*
D10*
X177250000Y-42150000D02*
X177250000Y-42800000D01*
D11*
X176750000Y-39700000D02*
X176750000Y-41499999D01*
D12*
X175620000Y-43200000D02*
X175620000Y-40960000D01*
D13*
X167250000Y-41350000D02*
X168550000Y-41400000D01*
D14*
X167550000Y-44100000D02*
X167550000Y-41600000D01*
D15*
X168850000Y-42900000D02*
X175550000Y-42900000D01*
D16*
X167050000Y-41100000D02*
X167050000Y-44700000D01*
X167070000Y-42100000D02*
X167070000Y-44350000D01*
X177350000Y-42050000D02*
X177150000Y-42050000D01*
X177100000Y-43650000D02*
X177100000Y-39200000D01*
X177350000Y-42800000D02*
X177350000Y-42050000D01*
X177100000Y-39200000D02*
X174070000Y-39200000D01*
X171850000Y-41100000D02*
X167050000Y-41100000D01*
X167050000Y-44700000D02*
X175250001Y-44700000D01*
D13*
X176900000Y-39400000D02*
X174450000Y-39400000D01*
D17*
X167200000Y-44500000D02*
X168450000Y-44500000D01*
D16*
X174066318Y-39221471D02*
G75*
G02*
X171850000Y-41100000I-2151318J291471D01*
G01*
X177350000Y-42799999D02*
G75*
G02*
X175250001Y-44700000I-2000000J99999D01*
G01*
D14*
X174466318Y-39621471D02*
G75*
G02*
X172250000Y-41500000I-2151318J291471D01*
G01*
D10*
X196300000Y-42150000D02*
X196300000Y-42800000D01*
D11*
X195800000Y-39700000D02*
X195800000Y-41499999D01*
D12*
X194670000Y-43200000D02*
X194670000Y-40960000D01*
D13*
X186300000Y-41350000D02*
X187600000Y-41400000D01*
D14*
X186600000Y-44100000D02*
X186600000Y-41600000D01*
D15*
X187900000Y-42900000D02*
X194600000Y-42900000D01*
D16*
X186100000Y-41100000D02*
X186100000Y-44700000D01*
X186120000Y-42100000D02*
X186120000Y-44350000D01*
X196400000Y-42050000D02*
X196200000Y-42050000D01*
X196150000Y-43650000D02*
X196150000Y-39200000D01*
X196400000Y-42800000D02*
X196400000Y-42050000D01*
X196150000Y-39200000D02*
X193120000Y-39200000D01*
X190900000Y-41100000D02*
X186100000Y-41100000D01*
X186100000Y-44700000D02*
X194300001Y-44700000D01*
D13*
X195950000Y-39400000D02*
X193500000Y-39400000D01*
D17*
X186250000Y-44500000D02*
X187500000Y-44500000D01*
D16*
X193116318Y-39221471D02*
G75*
G02*
X190900000Y-41100000I-2151318J291471D01*
G01*
X196400000Y-42799999D02*
G75*
G02*
X194300001Y-44700000I-2000000J99999D01*
G01*
D14*
X193516318Y-39621471D02*
G75*
G02*
X191300000Y-41500000I-2151318J291471D01*
G01*
D10*
X215350000Y-42150000D02*
X215350000Y-42800000D01*
D11*
X214850000Y-39700000D02*
X214850000Y-41499999D01*
D12*
X213720000Y-43200000D02*
X213720000Y-40960000D01*
D13*
X205350000Y-41350000D02*
X206650000Y-41400000D01*
D14*
X205650000Y-44100000D02*
X205650000Y-41600000D01*
D15*
X206950000Y-42900000D02*
X213650000Y-42900000D01*
D16*
X205150000Y-41100000D02*
X205150000Y-44700000D01*
X205170000Y-42100000D02*
X205170000Y-44350000D01*
X215450000Y-42050000D02*
X215250000Y-42050000D01*
X215200000Y-43650000D02*
X215200000Y-39200000D01*
X215450000Y-42800000D02*
X215450000Y-42050000D01*
X215200000Y-39200000D02*
X212170000Y-39200000D01*
X209950000Y-41100000D02*
X205150000Y-41100000D01*
X205150000Y-44700000D02*
X213350001Y-44700000D01*
D13*
X215000000Y-39400000D02*
X212550000Y-39400000D01*
D17*
X205300000Y-44500000D02*
X206550000Y-44500000D01*
D16*
X212166318Y-39221471D02*
G75*
G02*
X209950000Y-41100000I-2151318J291471D01*
G01*
X215450000Y-42799999D02*
G75*
G02*
X213350001Y-44700000I-2000000J99999D01*
G01*
D14*
X212566318Y-39621471D02*
G75*
G02*
X210350000Y-41500000I-2151318J291471D01*
G01*
D10*
X234400000Y-42150000D02*
X234400000Y-42800000D01*
D11*
X233900000Y-39700000D02*
X233900000Y-41499999D01*
D12*
X232770000Y-43200000D02*
X232770000Y-40960000D01*
D13*
X224400000Y-41350000D02*
X225700000Y-41400000D01*
D14*
X224700000Y-44100000D02*
X224700000Y-41600000D01*
D15*
X226000000Y-42900000D02*
X232700000Y-42900000D01*
D16*
X224200000Y-41100000D02*
X224200000Y-44700000D01*
X224220000Y-42100000D02*
X224220000Y-44350000D01*
X234500000Y-42050000D02*
X234300000Y-42050000D01*
X234250000Y-43650000D02*
X234250000Y-39200000D01*
X234500000Y-42800000D02*
X234500000Y-42050000D01*
X234250000Y-39200000D02*
X231220000Y-39200000D01*
X229000000Y-41100000D02*
X224200000Y-41100000D01*
X224200000Y-44700000D02*
X232400001Y-44700000D01*
D13*
X234050000Y-39400000D02*
X231600000Y-39400000D01*
D17*
X224350000Y-44500000D02*
X225600000Y-44500000D01*
D16*
X231216318Y-39221471D02*
G75*
G02*
X229000000Y-41100000I-2151318J291471D01*
G01*
X234500000Y-42799999D02*
G75*
G02*
X232400001Y-44700000I-2000000J99999D01*
G01*
D14*
X231616318Y-39621471D02*
G75*
G02*
X229400000Y-41500000I-2151318J291471D01*
G01*
D16*
X28075000Y-8750000D02*
X28075000Y-7750000D01*
X29075000Y-7750000D02*
X28175000Y-8250000D01*
X29075000Y-8750000D02*
X29075000Y-7750000D01*
X28175000Y-8250000D02*
X29075000Y-8750000D01*
X47125000Y-8750000D02*
X47125000Y-7750000D01*
X48125000Y-7750000D02*
X47225000Y-8250000D01*
X48125000Y-8750000D02*
X48125000Y-7750000D01*
X47225000Y-8250000D02*
X48125000Y-8750000D01*
X66175000Y-8750000D02*
X66175000Y-7750000D01*
X67175000Y-7750000D02*
X66275000Y-8250000D01*
X67175000Y-8750000D02*
X67175000Y-7750000D01*
X66275000Y-8250000D02*
X67175000Y-8750000D01*
X85225000Y-8750000D02*
X85225000Y-7750000D01*
X86225000Y-7750000D02*
X85325000Y-8250000D01*
X86225000Y-8750000D02*
X86225000Y-7750000D01*
X85325000Y-8250000D02*
X86225000Y-8750000D01*
X104275000Y-8750000D02*
X104275000Y-7750000D01*
X105275000Y-7750000D02*
X104375000Y-8250000D01*
X105275000Y-8750000D02*
X105275000Y-7750000D01*
X104375000Y-8250000D02*
X105275000Y-8750000D01*
X151900000Y-8750000D02*
X151900000Y-7750000D01*
X152900000Y-7750000D02*
X152000000Y-8250000D01*
X152900000Y-8750000D02*
X152900000Y-7750000D01*
X152000000Y-8250000D02*
X152900000Y-8750000D01*
X170950000Y-8750000D02*
X170950000Y-7750000D01*
X171950000Y-7750000D02*
X171050000Y-8250000D01*
X171950000Y-8750000D02*
X171950000Y-7750000D01*
X171050000Y-8250000D02*
X171950000Y-8750000D01*
X190000000Y-8750000D02*
X190000000Y-7750000D01*
X191000000Y-7750000D02*
X190100000Y-8250000D01*
X191000000Y-8750000D02*
X191000000Y-7750000D01*
X190100000Y-8250000D02*
X191000000Y-8750000D01*
X209050000Y-8750000D02*
X209050000Y-7750000D01*
X210050000Y-7750000D02*
X209150000Y-8250000D01*
X210050000Y-8750000D02*
X210050000Y-7750000D01*
X209150000Y-8250000D02*
X210050000Y-8750000D01*
X228100000Y-8750000D02*
X228100000Y-7750000D01*
X229100000Y-7750000D02*
X228200000Y-8250000D01*
X229100000Y-8750000D02*
X229100000Y-7750000D01*
X228200000Y-8250000D02*
X229100000Y-8750000D01*
X37597500Y-27800000D02*
X37597500Y-26800000D01*
X38597500Y-26800000D02*
X37697500Y-27300000D01*
X38597500Y-27800000D02*
X38597500Y-26800000D01*
X37697500Y-27300000D02*
X38597500Y-27800000D01*
X56647500Y-27800000D02*
X56647500Y-26800000D01*
X57647500Y-26800000D02*
X56747500Y-27300000D01*
X57647500Y-27800000D02*
X57647500Y-26800000D01*
X56747500Y-27300000D02*
X57647500Y-27800000D01*
X75697500Y-27800000D02*
X75697500Y-26800000D01*
X76697500Y-26800000D02*
X75797500Y-27300000D01*
X76697500Y-27800000D02*
X76697500Y-26800000D01*
X75797500Y-27300000D02*
X76697500Y-27800000D01*
X94747500Y-27800000D02*
X94747500Y-26800000D01*
X95747500Y-26800000D02*
X94847500Y-27300000D01*
X95747500Y-27800000D02*
X95747500Y-26800000D01*
X94847500Y-27300000D02*
X95747500Y-27800000D01*
X113798000Y-27800000D02*
X113798000Y-26800000D01*
X114798000Y-26800000D02*
X113898000Y-27300000D01*
X114798000Y-27800000D02*
X114798000Y-26800000D01*
X113898000Y-27300000D02*
X114798000Y-27800000D01*
X151900000Y-27800000D02*
X151900000Y-26800000D01*
X152900000Y-26800000D02*
X152000000Y-27300000D01*
X152900000Y-27800000D02*
X152900000Y-26800000D01*
X152000000Y-27300000D02*
X152900000Y-27800000D01*
X170950000Y-27800000D02*
X170950000Y-26800000D01*
X171950000Y-26800000D02*
X171050000Y-27300000D01*
X171950000Y-27800000D02*
X171950000Y-26800000D01*
X171050000Y-27300000D02*
X171950000Y-27800000D01*
X190000000Y-27800000D02*
X190000000Y-26800000D01*
X191000000Y-26800000D02*
X190100000Y-27300000D01*
X191000000Y-27800000D02*
X191000000Y-26800000D01*
X190100000Y-27300000D02*
X191000000Y-27800000D01*
X209050000Y-27800000D02*
X209050000Y-26800000D01*
X210050000Y-26800000D02*
X209150000Y-27300000D01*
X210050000Y-27800000D02*
X210050000Y-26800000D01*
X209150000Y-27300000D02*
X210050000Y-27800000D01*
X228100000Y-27800000D02*
X228100000Y-26800000D01*
X229100000Y-26800000D02*
X228200000Y-27300000D01*
X229100000Y-27800000D02*
X229100000Y-26800000D01*
X228200000Y-27300000D02*
X229100000Y-27800000D01*
X37600000Y-30350000D02*
X37600000Y-29350000D01*
X38600000Y-29350000D02*
X37700000Y-29850000D01*
X38600000Y-30350000D02*
X38600000Y-29350000D01*
X37700000Y-29850000D02*
X38600000Y-30350000D01*
X56650000Y-30350000D02*
X56650000Y-29350000D01*
X57650000Y-29350000D02*
X56750000Y-29850000D01*
X57650000Y-30350000D02*
X57650000Y-29350000D01*
X56750000Y-29850000D02*
X57650000Y-30350000D01*
X75700000Y-30350000D02*
X75700000Y-29350000D01*
X76700000Y-29350000D02*
X75800000Y-29850000D01*
X76700000Y-30350000D02*
X76700000Y-29350000D01*
X75800000Y-29850000D02*
X76700000Y-30350000D01*
X94750000Y-30350000D02*
X94750000Y-29350000D01*
X95750000Y-29350000D02*
X94850000Y-29850000D01*
X95750000Y-30350000D02*
X95750000Y-29350000D01*
X94850000Y-29850000D02*
X95750000Y-30350000D01*
X113800000Y-30350000D02*
X113800000Y-29350000D01*
X114800000Y-29350000D02*
X113900000Y-29850000D01*
X114800000Y-30350000D02*
X114800000Y-29350000D01*
X113900000Y-29850000D02*
X114800000Y-30350000D01*
X151900000Y-30350000D02*
X151900000Y-29350000D01*
X152900000Y-29350000D02*
X152000000Y-29850000D01*
X152900000Y-30350000D02*
X152900000Y-29350000D01*
X152000000Y-29850000D02*
X152900000Y-30350000D01*
X170950000Y-30350000D02*
X170950000Y-29350000D01*
X171950000Y-29350000D02*
X171050000Y-29850000D01*
X171950000Y-30350000D02*
X171950000Y-29350000D01*
X171050000Y-29850000D02*
X171950000Y-30350000D01*
X190000000Y-30350000D02*
X190000000Y-29350000D01*
X191000000Y-29350000D02*
X190100000Y-29850000D01*
X191000000Y-30350000D02*
X191000000Y-29350000D01*
X190100000Y-29850000D02*
X191000000Y-30350000D01*
X209050000Y-30350000D02*
X209050000Y-29350000D01*
X210050000Y-29350000D02*
X209150000Y-29850000D01*
X210050000Y-30350000D02*
X210050000Y-29350000D01*
X209150000Y-29850000D02*
X210050000Y-30350000D01*
X228100000Y-30350000D02*
X228100000Y-29350000D01*
X229100000Y-29350000D02*
X228200000Y-29850000D01*
X229100000Y-30350000D02*
X229100000Y-29350000D01*
X228200000Y-29850000D02*
X229100000Y-30350000D01*
X123325000Y-30350000D02*
X123325000Y-29350000D01*
X124325000Y-29350000D02*
X123425000Y-29850000D01*
X124325000Y-30350000D02*
X124325000Y-29350000D01*
X123425000Y-29850000D02*
X124325000Y-30350000D01*
X4263000Y-8750000D02*
X4263000Y-7750000D01*
X5263000Y-7750000D02*
X4363000Y-8250000D01*
X5263000Y-8750000D02*
X5263000Y-7750000D01*
X4363000Y-8250000D02*
X5263000Y-8750000D01*
X4025000Y-30350000D02*
X4025000Y-29350000D01*
X5025000Y-29350000D02*
X4125000Y-29850000D01*
X5025000Y-30350000D02*
X5025000Y-29350000D01*
X4125000Y-29850000D02*
X5025000Y-30350000D01*
X14025000Y-30350000D02*
X14025000Y-29350000D01*
X15025000Y-29350000D02*
X14125000Y-29850000D01*
X15025000Y-30350000D02*
X15025000Y-29350000D01*
X14125000Y-29850000D02*
X15025000Y-30350000D01*
X139718000Y-10025000D02*
X138718000Y-10025000D01*
X138718000Y-9025000D02*
X139218000Y-9925000D01*
X139718000Y-9025000D02*
X138718000Y-9025000D01*
X139218000Y-9925000D02*
X139718000Y-9025000D01*
X58650000Y-3350000D02*
X58900000Y-3350000D01*
X58900000Y-3350000D02*
X58900000Y-9350000D01*
X58900000Y-9350000D02*
X58650000Y-9350000D01*
X55650000Y-9350000D02*
X55400000Y-9350000D01*
X55400000Y-9350000D02*
X55400000Y-3350000D01*
X55400000Y-3350000D02*
X55650000Y-3350000D01*
D10*
X126918000Y-15325000D02*
X126268000Y-15325000D01*
D11*
X129368000Y-14825000D02*
X127568001Y-14825000D01*
D12*
X125868000Y-13695000D02*
X128108000Y-13695000D01*
D13*
X127718000Y-5325000D02*
X127668000Y-6625000D01*
D14*
X124968000Y-5625000D02*
X127468000Y-5625000D01*
D15*
X126168000Y-6925000D02*
X126168000Y-13625000D01*
D16*
X127968000Y-5125000D02*
X124368000Y-5125000D01*
X126968000Y-5145000D02*
X124718000Y-5145000D01*
X127018000Y-15425000D02*
X127018000Y-15225000D01*
X125418000Y-15175000D02*
X129868000Y-15175000D01*
X126268000Y-15425000D02*
X127018000Y-15425000D01*
X129868000Y-15175000D02*
X129868000Y-12145000D01*
X127968000Y-9925000D02*
X127968000Y-5125000D01*
X124368000Y-5125000D02*
X124368000Y-13325001D01*
D13*
X129668000Y-14975000D02*
X129668000Y-12525000D01*
D17*
X124568000Y-5275000D02*
X124568000Y-6525000D01*
D14*
X129446529Y-12541318D02*
G75*
G02*
X127568000Y-10325000I291471J2151318D01*
G01*
D16*
X126268001Y-15425000D02*
G75*
G02*
X124368000Y-13325001I99999J2000000D01*
G01*
X129846529Y-12141318D02*
G75*
G02*
X127968000Y-9925000I291471J2151318D01*
G01*
D18*
G36*
X221575000Y-32040000D02*
G01*
X221275000Y-31790000D01*
X219275000Y-31790000D01*
X221575000Y-34040000D01*
X221575000Y-32040000D01*
G37*
X221575000Y-32040000D02*
X221275000Y-31790000D01*
X219275000Y-31790000D01*
X221575000Y-34040000D01*
X221575000Y-32040000D01*
D19*
X221615000Y-31115000D02*
X222250000Y-31750000D01*
X222250000Y-31115000D02*
X221615000Y-31115000D01*
X222250000Y-31750000D02*
X222250000Y-31115000D01*
D16*
X219275000Y-31790000D02*
X221575000Y-34040000D01*
D20*
X221275000Y-31790000D02*
X216575000Y-31790000D01*
X221575000Y-32040000D02*
X221575000Y-36790000D01*
X221275000Y-31790000D02*
X221575000Y-32040000D01*
X216575000Y-36790000D02*
X221575000Y-36790000D01*
X216575640Y-31790640D02*
X216575640Y-36789360D01*
X140375640Y-31790640D02*
X140375640Y-36789360D01*
X140375000Y-36790000D02*
X145375000Y-36790000D01*
X145075000Y-31790000D02*
X145375000Y-32040000D01*
X145375000Y-32040000D02*
X145375000Y-36790000D01*
X145075000Y-31790000D02*
X140375000Y-31790000D01*
D16*
X143075000Y-31790000D02*
X145375000Y-34040000D01*
D19*
X146050000Y-31750000D02*
X146050000Y-31115000D01*
X146050000Y-31115000D02*
X145415000Y-31115000D01*
X145415000Y-31115000D02*
X146050000Y-31750000D01*
D18*
G36*
X145375000Y-32040000D02*
G01*
X145075000Y-31790000D01*
X143075000Y-31790000D01*
X145375000Y-34040000D01*
X145375000Y-32040000D01*
G37*
X145375000Y-32040000D02*
X145075000Y-31790000D01*
X143075000Y-31790000D01*
X145375000Y-34040000D01*
X145375000Y-32040000D01*
G36*
X88225000Y-32040000D02*
G01*
X87925000Y-31790000D01*
X85925000Y-31790000D01*
X88225000Y-34040000D01*
X88225000Y-32040000D01*
G37*
X88225000Y-32040000D02*
X87925000Y-31790000D01*
X85925000Y-31790000D01*
X88225000Y-34040000D01*
X88225000Y-32040000D01*
D19*
X88265000Y-31115000D02*
X88900000Y-31750000D01*
X88900000Y-31115000D02*
X88265000Y-31115000D01*
X88900000Y-31750000D02*
X88900000Y-31115000D01*
D16*
X85925000Y-31790000D02*
X88225000Y-34040000D01*
D20*
X87925000Y-31790000D02*
X83225000Y-31790000D01*
X88225000Y-32040000D02*
X88225000Y-36790000D01*
X87925000Y-31790000D02*
X88225000Y-32040000D01*
X83225000Y-36790000D02*
X88225000Y-36790000D01*
X83225640Y-31790640D02*
X83225640Y-36789360D01*
X26075640Y-31790640D02*
X26075640Y-36789360D01*
X26075000Y-36790000D02*
X31075000Y-36790000D01*
X30775000Y-31790000D02*
X31075000Y-32040000D01*
X31075000Y-32040000D02*
X31075000Y-36790000D01*
X30775000Y-31790000D02*
X26075000Y-31790000D01*
D16*
X28775000Y-31790000D02*
X31075000Y-34040000D01*
D19*
X31750000Y-31750000D02*
X31750000Y-31115000D01*
X31750000Y-31115000D02*
X31115000Y-31115000D01*
X31115000Y-31115000D02*
X31750000Y-31750000D01*
D18*
G36*
X31075000Y-32040000D02*
G01*
X30775000Y-31790000D01*
X28775000Y-31790000D01*
X31075000Y-34040000D01*
X31075000Y-32040000D01*
G37*
X31075000Y-32040000D02*
X30775000Y-31790000D01*
X28775000Y-31790000D01*
X31075000Y-34040000D01*
X31075000Y-32040000D01*
G36*
X16470000Y-1560000D02*
G01*
X16170000Y-1310000D01*
X14170000Y-1310000D01*
X16470000Y-3560000D01*
X16470000Y-1560000D01*
G37*
X16470000Y-1560000D02*
X16170000Y-1310000D01*
X14170000Y-1310000D01*
X16470000Y-3560000D01*
X16470000Y-1560000D01*
D19*
X16510000Y-635000D02*
X17145000Y-1270000D01*
X17145000Y-635000D02*
X16510000Y-635000D01*
X17145000Y-1270000D02*
X17145000Y-635000D01*
D16*
X14170000Y-1310000D02*
X16470000Y-3560000D01*
D20*
X16170000Y-1310000D02*
X11470000Y-1310000D01*
X16470000Y-1560000D02*
X16470000Y-6310000D01*
X16170000Y-1310000D02*
X16470000Y-1560000D01*
X11470000Y-6310000D02*
X16470000Y-6310000D01*
X11470640Y-1310640D02*
X11470640Y-6309360D01*
X216575640Y-1310640D02*
X216575640Y-6309360D01*
X216575000Y-6310000D02*
X221575000Y-6310000D01*
X221275000Y-1310000D02*
X221575000Y-1560000D01*
X221575000Y-1560000D02*
X221575000Y-6310000D01*
X221275000Y-1310000D02*
X216575000Y-1310000D01*
D16*
X219275000Y-1310000D02*
X221575000Y-3560000D01*
D19*
X222250000Y-1270000D02*
X222250000Y-635000D01*
X222250000Y-635000D02*
X221615000Y-635000D01*
X221615000Y-635000D02*
X222250000Y-1270000D01*
D18*
G36*
X221575000Y-1560000D02*
G01*
X221275000Y-1310000D01*
X219275000Y-1310000D01*
X221575000Y-3560000D01*
X221575000Y-1560000D01*
G37*
X221575000Y-1560000D02*
X221275000Y-1310000D01*
X219275000Y-1310000D01*
X221575000Y-3560000D01*
X221575000Y-1560000D01*
D10*
X139150000Y-42150000D02*
X139150000Y-42800000D01*
D11*
X138650000Y-39700000D02*
X138650000Y-41499999D01*
D12*
X137520000Y-43200000D02*
X137520000Y-40960000D01*
D13*
X129150000Y-41350000D02*
X130450000Y-41400000D01*
D14*
X129450000Y-44100000D02*
X129450000Y-41600000D01*
D15*
X130750000Y-42900000D02*
X137450000Y-42900000D01*
D16*
X128950000Y-41100000D02*
X128950000Y-44700000D01*
X128970000Y-42100000D02*
X128970000Y-44350000D01*
X139250000Y-42050000D02*
X139050000Y-42050000D01*
X139000000Y-43650000D02*
X139000000Y-39200000D01*
X139250000Y-42800000D02*
X139250000Y-42050000D01*
X139000000Y-39200000D02*
X135970000Y-39200000D01*
X133750000Y-41100000D02*
X128950000Y-41100000D01*
X128950000Y-44700000D02*
X137150001Y-44700000D01*
D13*
X138800000Y-39400000D02*
X136350000Y-39400000D01*
D17*
X129100000Y-44500000D02*
X130350000Y-44500000D01*
D14*
X136366318Y-39621471D02*
G75*
G02*
X134150000Y-41500000I-2151318J291471D01*
G01*
D16*
X139250000Y-42799999D02*
G75*
G02*
X137150001Y-44700000I-2000000J99999D01*
G01*
X135966318Y-39221471D02*
G75*
G02*
X133750000Y-41100000I-2151318J291471D01*
G01*
X57602380Y-4770619D02*
X57126190Y-4437285D01*
X57602380Y-4199190D02*
X56602380Y-4199190D01*
X56602380Y-4580142D01*
X56650000Y-4675380D01*
X56697619Y-4723000D01*
X56792857Y-4770619D01*
X56935714Y-4770619D01*
X57030952Y-4723000D01*
X57078571Y-4675380D01*
X57126190Y-4580142D01*
X57126190Y-4199190D01*
X57078571Y-5199190D02*
X57078571Y-5532523D01*
X57602380Y-5675380D02*
X57602380Y-5199190D01*
X56602380Y-5199190D01*
X56602380Y-5675380D01*
X57554761Y-6056333D02*
X57602380Y-6199190D01*
X57602380Y-6437285D01*
X57554761Y-6532523D01*
X57507142Y-6580142D01*
X57411904Y-6627761D01*
X57316666Y-6627761D01*
X57221428Y-6580142D01*
X57173809Y-6532523D01*
X57126190Y-6437285D01*
X57078571Y-6246809D01*
X57030952Y-6151571D01*
X56983333Y-6103952D01*
X56888095Y-6056333D01*
X56792857Y-6056333D01*
X56697619Y-6103952D01*
X56650000Y-6151571D01*
X56602380Y-6246809D01*
X56602380Y-6484904D01*
X56650000Y-6627761D01*
X57078571Y-7056333D02*
X57078571Y-7389666D01*
X57602380Y-7532523D02*
X57602380Y-7056333D01*
X56602380Y-7056333D01*
X56602380Y-7532523D01*
X56602380Y-7818238D02*
X56602380Y-8389666D01*
X57602380Y-8103952D02*
X56602380Y-8103952D01*
D21*
X-5016714Y-23448380D02*
X-5373857Y-23225047D01*
X-5016714Y-23065523D02*
X-5766714Y-23065523D01*
X-5766714Y-23320761D01*
X-5731000Y-23384571D01*
X-5695285Y-23416476D01*
X-5623857Y-23448380D01*
X-5516714Y-23448380D01*
X-5445285Y-23416476D01*
X-5409571Y-23384571D01*
X-5373857Y-23320761D01*
X-5373857Y-23065523D01*
X-5231000Y-23703619D02*
X-5231000Y-24022666D01*
X-5016714Y-23639809D02*
X-5766714Y-23863142D01*
X-5016714Y-24086476D01*
X-5766714Y-24246000D02*
X-5016714Y-24405523D01*
X-5552428Y-24533142D01*
X-5016714Y-24660761D01*
X-5766714Y-24820285D01*
X-3181000Y-23400523D02*
X-3216714Y-23336714D01*
X-3216714Y-23241000D01*
X-3181000Y-23145285D01*
X-3109571Y-23081476D01*
X-3038142Y-23049571D01*
X-2895285Y-23017666D01*
X-2788142Y-23017666D01*
X-2645285Y-23049571D01*
X-2573857Y-23081476D01*
X-2502428Y-23145285D01*
X-2466714Y-23241000D01*
X-2466714Y-23304809D01*
X-2502428Y-23400523D01*
X-2538142Y-23432428D01*
X-2788142Y-23432428D01*
X-2788142Y-23304809D01*
X-2466714Y-23719571D02*
X-3216714Y-23719571D01*
X-2466714Y-24102428D01*
X-3216714Y-24102428D01*
X-2466714Y-24421476D02*
X-3216714Y-24421476D01*
X-3216714Y-24581000D01*
X-3181000Y-24676714D01*
X-3109571Y-24740523D01*
X-3038142Y-24772428D01*
X-2895285Y-24804333D01*
X-2788142Y-24804333D01*
X-2645285Y-24772428D01*
X-2573857Y-24740523D01*
X-2502428Y-24676714D01*
X-2466714Y-24581000D01*
X-2466714Y-24421476D01*
X83285Y-23544095D02*
X-273857Y-23320761D01*
X83285Y-23161238D02*
X-666714Y-23161238D01*
X-666714Y-23416476D01*
X-631000Y-23480285D01*
X-595285Y-23512190D01*
X-523857Y-23544095D01*
X-416714Y-23544095D01*
X-345285Y-23512190D01*
X-309571Y-23480285D01*
X-273857Y-23416476D01*
X-273857Y-23161238D01*
X47571Y-23799333D02*
X83285Y-23895047D01*
X83285Y-24054571D01*
X47571Y-24118380D01*
X11857Y-24150285D01*
X-59571Y-24182190D01*
X-131000Y-24182190D01*
X-202428Y-24150285D01*
X-238142Y-24118380D01*
X-273857Y-24054571D01*
X-309571Y-23926952D01*
X-345285Y-23863142D01*
X-381000Y-23831238D01*
X-452428Y-23799333D01*
X-523857Y-23799333D01*
X-595285Y-23831238D01*
X-631000Y-23863142D01*
X-666714Y-23926952D01*
X-666714Y-24086476D01*
X-631000Y-24182190D01*
X-666714Y-24373619D02*
X-666714Y-24756476D01*
X83285Y-24565047D02*
X-666714Y-24565047D01*
X1783285Y-23017666D02*
X2533285Y-23241000D01*
X1783285Y-23464333D01*
X2461857Y-24070523D02*
X2497571Y-24038619D01*
X2533285Y-23942904D01*
X2533285Y-23879095D01*
X2497571Y-23783380D01*
X2426142Y-23719571D01*
X2354714Y-23687666D01*
X2211857Y-23655761D01*
X2104714Y-23655761D01*
X1961857Y-23687666D01*
X1890428Y-23719571D01*
X1819000Y-23783380D01*
X1783285Y-23879095D01*
X1783285Y-23942904D01*
X1819000Y-24038619D01*
X1854714Y-24070523D01*
X2461857Y-24740523D02*
X2497571Y-24708619D01*
X2533285Y-24612904D01*
X2533285Y-24549095D01*
X2497571Y-24453380D01*
X2426142Y-24389571D01*
X2354714Y-24357666D01*
X2211857Y-24325761D01*
X2104714Y-24325761D01*
X1961857Y-24357666D01*
X1890428Y-24389571D01*
X1819000Y-24453380D01*
X1783285Y-24549095D01*
X1783285Y-24612904D01*
X1819000Y-24708619D01*
X1854714Y-24740523D01*
X5019000Y-21855285D02*
X5019000Y-22174333D01*
X5233285Y-21791476D02*
X4483285Y-22014809D01*
X5233285Y-22238142D01*
X4483285Y-22397666D02*
X4483285Y-22812428D01*
X4769000Y-22589095D01*
X4769000Y-22684809D01*
X4804714Y-22748619D01*
X4840428Y-22780523D01*
X4911857Y-22812428D01*
X5090428Y-22812428D01*
X5161857Y-22780523D01*
X5197571Y-22748619D01*
X5233285Y-22684809D01*
X5233285Y-22493380D01*
X5197571Y-22429571D01*
X5161857Y-22397666D01*
X4447571Y-23578142D02*
X5411857Y-23003857D01*
X4840428Y-24024809D02*
X4840428Y-23801476D01*
X5233285Y-23801476D02*
X4483285Y-23801476D01*
X4483285Y-24120523D01*
X4733285Y-24662904D02*
X5233285Y-24662904D01*
X4447571Y-24503380D02*
X4983285Y-24343857D01*
X4983285Y-24758619D01*
X7519000Y-21855285D02*
X7519000Y-22174333D01*
X7733285Y-21791476D02*
X6983285Y-22014809D01*
X7733285Y-22238142D01*
X7054714Y-22429571D02*
X7019000Y-22461476D01*
X6983285Y-22525285D01*
X6983285Y-22684809D01*
X7019000Y-22748619D01*
X7054714Y-22780523D01*
X7126142Y-22812428D01*
X7197571Y-22812428D01*
X7304714Y-22780523D01*
X7733285Y-22397666D01*
X7733285Y-22812428D01*
X6947571Y-23578142D02*
X7911857Y-23003857D01*
X7340428Y-24024809D02*
X7340428Y-23801476D01*
X7733285Y-23801476D02*
X6983285Y-23801476D01*
X6983285Y-24120523D01*
X6983285Y-24694809D02*
X6983285Y-24375761D01*
X7340428Y-24343857D01*
X7304714Y-24375761D01*
X7269000Y-24439571D01*
X7269000Y-24599095D01*
X7304714Y-24662904D01*
X7340428Y-24694809D01*
X7411857Y-24726714D01*
X7590428Y-24726714D01*
X7661857Y-24694809D01*
X7697571Y-24662904D01*
X7733285Y-24599095D01*
X7733285Y-24439571D01*
X7697571Y-24375761D01*
X7661857Y-24343857D01*
X10019000Y-21855285D02*
X10019000Y-22174333D01*
X10233285Y-21791476D02*
X9483285Y-22014809D01*
X10233285Y-22238142D01*
X10233285Y-22812428D02*
X10233285Y-22429571D01*
X10233285Y-22621000D02*
X9483285Y-22621000D01*
X9590428Y-22557190D01*
X9661857Y-22493380D01*
X9697571Y-22429571D01*
X9447571Y-23578142D02*
X10411857Y-23003857D01*
X9840428Y-24024809D02*
X9840428Y-23801476D01*
X10233285Y-23801476D02*
X9483285Y-23801476D01*
X9483285Y-24120523D01*
X9483285Y-24662904D02*
X9483285Y-24535285D01*
X9519000Y-24471476D01*
X9554714Y-24439571D01*
X9661857Y-24375761D01*
X9804714Y-24343857D01*
X10090428Y-24343857D01*
X10161857Y-24375761D01*
X10197571Y-24407666D01*
X10233285Y-24471476D01*
X10233285Y-24599095D01*
X10197571Y-24662904D01*
X10161857Y-24694809D01*
X10090428Y-24726714D01*
X9911857Y-24726714D01*
X9840428Y-24694809D01*
X9804714Y-24662904D01*
X9769000Y-24599095D01*
X9769000Y-24471476D01*
X9804714Y-24407666D01*
X9840428Y-24375761D01*
X9911857Y-24343857D01*
X12569000Y-21855285D02*
X12569000Y-22174333D01*
X12783285Y-21791476D02*
X12033285Y-22014809D01*
X12783285Y-22238142D01*
X12033285Y-22589095D02*
X12033285Y-22652904D01*
X12069000Y-22716714D01*
X12104714Y-22748619D01*
X12176142Y-22780523D01*
X12319000Y-22812428D01*
X12497571Y-22812428D01*
X12640428Y-22780523D01*
X12711857Y-22748619D01*
X12747571Y-22716714D01*
X12783285Y-22652904D01*
X12783285Y-22589095D01*
X12747571Y-22525285D01*
X12711857Y-22493380D01*
X12640428Y-22461476D01*
X12497571Y-22429571D01*
X12319000Y-22429571D01*
X12176142Y-22461476D01*
X12104714Y-22493380D01*
X12069000Y-22525285D01*
X12033285Y-22589095D01*
X11997571Y-23578142D02*
X12961857Y-23003857D01*
X12390428Y-24024809D02*
X12390428Y-23801476D01*
X12783285Y-23801476D02*
X12033285Y-23801476D01*
X12033285Y-24120523D01*
X12033285Y-24311952D02*
X12033285Y-24758619D01*
X12783285Y-24471476D01*
X15333285Y-22158380D02*
X15333285Y-21775523D01*
X15333285Y-21966952D02*
X14583285Y-21966952D01*
X14690428Y-21903142D01*
X14761857Y-21839333D01*
X14797571Y-21775523D01*
X14583285Y-22764571D02*
X14583285Y-22445523D01*
X14940428Y-22413619D01*
X14904714Y-22445523D01*
X14869000Y-22509333D01*
X14869000Y-22668857D01*
X14904714Y-22732666D01*
X14940428Y-22764571D01*
X15011857Y-22796476D01*
X15190428Y-22796476D01*
X15261857Y-22764571D01*
X15297571Y-22732666D01*
X15333285Y-22668857D01*
X15333285Y-22509333D01*
X15297571Y-22445523D01*
X15261857Y-22413619D01*
X14547571Y-23562190D02*
X15511857Y-22987904D01*
X14940428Y-24008857D02*
X14976142Y-24104571D01*
X15011857Y-24136476D01*
X15083285Y-24168380D01*
X15190428Y-24168380D01*
X15261857Y-24136476D01*
X15297571Y-24104571D01*
X15333285Y-24040761D01*
X15333285Y-23785523D01*
X14583285Y-23785523D01*
X14583285Y-24008857D01*
X14619000Y-24072666D01*
X14654714Y-24104571D01*
X14726142Y-24136476D01*
X14797571Y-24136476D01*
X14869000Y-24104571D01*
X14904714Y-24072666D01*
X14940428Y-24008857D01*
X14940428Y-23785523D01*
X15333285Y-24806476D02*
X15333285Y-24423619D01*
X15333285Y-24615047D02*
X14583285Y-24615047D01*
X14690428Y-24551238D01*
X14761857Y-24487428D01*
X14797571Y-24423619D01*
X17883285Y-22158380D02*
X17883285Y-21775523D01*
X17883285Y-21966952D02*
X17133285Y-21966952D01*
X17240428Y-21903142D01*
X17311857Y-21839333D01*
X17347571Y-21775523D01*
X17383285Y-22732666D02*
X17883285Y-22732666D01*
X17097571Y-22573142D02*
X17633285Y-22413619D01*
X17633285Y-22828380D01*
X17097571Y-23562190D02*
X18061857Y-22987904D01*
X17490428Y-24008857D02*
X17526142Y-24104571D01*
X17561857Y-24136476D01*
X17633285Y-24168380D01*
X17740428Y-24168380D01*
X17811857Y-24136476D01*
X17847571Y-24104571D01*
X17883285Y-24040761D01*
X17883285Y-23785523D01*
X17133285Y-23785523D01*
X17133285Y-24008857D01*
X17169000Y-24072666D01*
X17204714Y-24104571D01*
X17276142Y-24136476D01*
X17347571Y-24136476D01*
X17419000Y-24104571D01*
X17454714Y-24072666D01*
X17490428Y-24008857D01*
X17490428Y-23785523D01*
X17133285Y-24391714D02*
X17133285Y-24806476D01*
X17419000Y-24583142D01*
X17419000Y-24678857D01*
X17454714Y-24742666D01*
X17490428Y-24774571D01*
X17561857Y-24806476D01*
X17740428Y-24806476D01*
X17811857Y-24774571D01*
X17847571Y-24742666D01*
X17883285Y-24678857D01*
X17883285Y-24487428D01*
X17847571Y-24423619D01*
X17811857Y-24391714D01*
X20433285Y-22158380D02*
X20433285Y-21775523D01*
X20433285Y-21966952D02*
X19683285Y-21966952D01*
X19790428Y-21903142D01*
X19861857Y-21839333D01*
X19897571Y-21775523D01*
X19683285Y-22732666D02*
X19683285Y-22605047D01*
X19719000Y-22541238D01*
X19754714Y-22509333D01*
X19861857Y-22445523D01*
X20004714Y-22413619D01*
X20290428Y-22413619D01*
X20361857Y-22445523D01*
X20397571Y-22477428D01*
X20433285Y-22541238D01*
X20433285Y-22668857D01*
X20397571Y-22732666D01*
X20361857Y-22764571D01*
X20290428Y-22796476D01*
X20111857Y-22796476D01*
X20040428Y-22764571D01*
X20004714Y-22732666D01*
X19969000Y-22668857D01*
X19969000Y-22541238D01*
X20004714Y-22477428D01*
X20040428Y-22445523D01*
X20111857Y-22413619D01*
X19647571Y-23562190D02*
X20611857Y-22987904D01*
X20040428Y-24008857D02*
X20076142Y-24104571D01*
X20111857Y-24136476D01*
X20183285Y-24168380D01*
X20290428Y-24168380D01*
X20361857Y-24136476D01*
X20397571Y-24104571D01*
X20433285Y-24040761D01*
X20433285Y-23785523D01*
X19683285Y-23785523D01*
X19683285Y-24008857D01*
X19719000Y-24072666D01*
X19754714Y-24104571D01*
X19826142Y-24136476D01*
X19897571Y-24136476D01*
X19969000Y-24104571D01*
X20004714Y-24072666D01*
X20040428Y-24008857D01*
X20040428Y-23785523D01*
X19754714Y-24423619D02*
X19719000Y-24455523D01*
X19683285Y-24519333D01*
X19683285Y-24678857D01*
X19719000Y-24742666D01*
X19754714Y-24774571D01*
X19826142Y-24806476D01*
X19897571Y-24806476D01*
X20004714Y-24774571D01*
X20433285Y-24391714D01*
X20433285Y-24806476D01*
X22933285Y-22158380D02*
X22933285Y-21775523D01*
X22933285Y-21966952D02*
X22183285Y-21966952D01*
X22290428Y-21903142D01*
X22361857Y-21839333D01*
X22397571Y-21775523D01*
X22183285Y-22573142D02*
X22183285Y-22636952D01*
X22219000Y-22700761D01*
X22254714Y-22732666D01*
X22326142Y-22764571D01*
X22469000Y-22796476D01*
X22647571Y-22796476D01*
X22790428Y-22764571D01*
X22861857Y-22732666D01*
X22897571Y-22700761D01*
X22933285Y-22636952D01*
X22933285Y-22573142D01*
X22897571Y-22509333D01*
X22861857Y-22477428D01*
X22790428Y-22445523D01*
X22647571Y-22413619D01*
X22469000Y-22413619D01*
X22326142Y-22445523D01*
X22254714Y-22477428D01*
X22219000Y-22509333D01*
X22183285Y-22573142D01*
X22147571Y-23562190D02*
X23111857Y-22987904D01*
X22540428Y-24008857D02*
X22576142Y-24104571D01*
X22611857Y-24136476D01*
X22683285Y-24168380D01*
X22790428Y-24168380D01*
X22861857Y-24136476D01*
X22897571Y-24104571D01*
X22933285Y-24040761D01*
X22933285Y-23785523D01*
X22183285Y-23785523D01*
X22183285Y-24008857D01*
X22219000Y-24072666D01*
X22254714Y-24104571D01*
X22326142Y-24136476D01*
X22397571Y-24136476D01*
X22469000Y-24104571D01*
X22504714Y-24072666D01*
X22540428Y-24008857D01*
X22540428Y-23785523D01*
X22183285Y-24742666D02*
X22183285Y-24615047D01*
X22219000Y-24551238D01*
X22254714Y-24519333D01*
X22361857Y-24455523D01*
X22504714Y-24423619D01*
X22790428Y-24423619D01*
X22861857Y-24455523D01*
X22897571Y-24487428D01*
X22933285Y-24551238D01*
X22933285Y-24678857D01*
X22897571Y-24742666D01*
X22861857Y-24774571D01*
X22790428Y-24806476D01*
X22611857Y-24806476D01*
X22540428Y-24774571D01*
X22504714Y-24742666D01*
X22469000Y-24678857D01*
X22469000Y-24551238D01*
X22504714Y-24487428D01*
X22540428Y-24455523D01*
X22611857Y-24423619D01*
X17440428Y-12773380D02*
X17440428Y-12996714D01*
X17833285Y-13092428D02*
X17833285Y-12773380D01*
X17083285Y-12773380D01*
X17083285Y-13092428D01*
X17083285Y-13666714D02*
X17083285Y-13539095D01*
X17119000Y-13475285D01*
X17154714Y-13443380D01*
X17261857Y-13379571D01*
X17404714Y-13347666D01*
X17690428Y-13347666D01*
X17761857Y-13379571D01*
X17797571Y-13411476D01*
X17833285Y-13475285D01*
X17833285Y-13602904D01*
X17797571Y-13666714D01*
X17761857Y-13698619D01*
X17690428Y-13730523D01*
X17511857Y-13730523D01*
X17440428Y-13698619D01*
X17404714Y-13666714D01*
X17369000Y-13602904D01*
X17369000Y-13475285D01*
X17404714Y-13411476D01*
X17440428Y-13379571D01*
X17511857Y-13347666D01*
X17047571Y-14496238D02*
X18011857Y-13921952D01*
X17083285Y-14655761D02*
X17083285Y-15102428D01*
X17833285Y-14815285D01*
X15283285Y-12741476D02*
X14533285Y-12741476D01*
X14533285Y-12901000D01*
X14569000Y-12996714D01*
X14640428Y-13060523D01*
X14711857Y-13092428D01*
X14854714Y-13124333D01*
X14961857Y-13124333D01*
X15104714Y-13092428D01*
X15176142Y-13060523D01*
X15247571Y-12996714D01*
X15283285Y-12901000D01*
X15283285Y-12741476D01*
X14533285Y-13347666D02*
X14533285Y-13794333D01*
X15283285Y-13507190D01*
X14497571Y-14528142D02*
X15461857Y-13953857D01*
X14533285Y-15038619D02*
X14533285Y-14911000D01*
X14569000Y-14847190D01*
X14604714Y-14815285D01*
X14711857Y-14751476D01*
X14854714Y-14719571D01*
X15140428Y-14719571D01*
X15211857Y-14751476D01*
X15247571Y-14783380D01*
X15283285Y-14847190D01*
X15283285Y-14974809D01*
X15247571Y-15038619D01*
X15211857Y-15070523D01*
X15140428Y-15102428D01*
X14961857Y-15102428D01*
X14890428Y-15070523D01*
X14854714Y-15038619D01*
X14819000Y-14974809D01*
X14819000Y-14847190D01*
X14854714Y-14783380D01*
X14890428Y-14751476D01*
X14961857Y-14719571D01*
X-531000Y-13260523D02*
X-566714Y-13196714D01*
X-566714Y-13101000D01*
X-531000Y-13005285D01*
X-459571Y-12941476D01*
X-388142Y-12909571D01*
X-245285Y-12877666D01*
X-138142Y-12877666D01*
X4714Y-12909571D01*
X76142Y-12941476D01*
X147571Y-13005285D01*
X183285Y-13101000D01*
X183285Y-13164809D01*
X147571Y-13260523D01*
X111857Y-13292428D01*
X-138142Y-13292428D01*
X-138142Y-13164809D01*
X183285Y-13579571D02*
X-566714Y-13579571D01*
X183285Y-13962428D01*
X-566714Y-13962428D01*
X183285Y-14281476D02*
X-566714Y-14281476D01*
X-566714Y-14441000D01*
X-531000Y-14536714D01*
X-459571Y-14600523D01*
X-388142Y-14632428D01*
X-245285Y-14664333D01*
X-138142Y-14664333D01*
X4714Y-14632428D01*
X76142Y-14600523D01*
X147571Y-14536714D01*
X183285Y-14441000D01*
X183285Y-14281476D01*
X1919000Y-13260523D02*
X1883285Y-13196714D01*
X1883285Y-13101000D01*
X1919000Y-13005285D01*
X1990428Y-12941476D01*
X2061857Y-12909571D01*
X2204714Y-12877666D01*
X2311857Y-12877666D01*
X2454714Y-12909571D01*
X2526142Y-12941476D01*
X2597571Y-13005285D01*
X2633285Y-13101000D01*
X2633285Y-13164809D01*
X2597571Y-13260523D01*
X2561857Y-13292428D01*
X2311857Y-13292428D01*
X2311857Y-13164809D01*
X2633285Y-13579571D02*
X1883285Y-13579571D01*
X2633285Y-13962428D01*
X1883285Y-13962428D01*
X2633285Y-14281476D02*
X1883285Y-14281476D01*
X1883285Y-14441000D01*
X1919000Y-14536714D01*
X1990428Y-14600523D01*
X2061857Y-14632428D01*
X2204714Y-14664333D01*
X2311857Y-14664333D01*
X2454714Y-14632428D01*
X2526142Y-14600523D01*
X2597571Y-14536714D01*
X2633285Y-14441000D01*
X2633285Y-14281476D01*
X-4966714Y-12987190D02*
X-5716714Y-12987190D01*
X-5716714Y-13146714D01*
X-5681000Y-13242428D01*
X-5609571Y-13306238D01*
X-5538142Y-13338142D01*
X-5395285Y-13370047D01*
X-5288142Y-13370047D01*
X-5145285Y-13338142D01*
X-5073857Y-13306238D01*
X-5002428Y-13242428D01*
X-4966714Y-13146714D01*
X-4966714Y-12987190D01*
X-5716714Y-13593380D02*
X-5716714Y-14008142D01*
X-5431000Y-13784809D01*
X-5431000Y-13880523D01*
X-5395285Y-13944333D01*
X-5359571Y-13976238D01*
X-5288142Y-14008142D01*
X-5109571Y-14008142D01*
X-5038142Y-13976238D01*
X-5002428Y-13944333D01*
X-4966714Y-13880523D01*
X-4966714Y-13689095D01*
X-5002428Y-13625285D01*
X-5038142Y-13593380D01*
X-5752428Y-14773857D02*
X-4788142Y-14199571D01*
X-5716714Y-14901476D02*
X-5716714Y-15284333D01*
X-4966714Y-15092904D02*
X-5716714Y-15092904D01*
X-5716714Y-15443857D02*
X-4966714Y-15890523D01*
X-5716714Y-15890523D02*
X-4966714Y-15443857D01*
X-5716714Y-16273380D02*
X-5716714Y-16337190D01*
X-5681000Y-16401000D01*
X-5645285Y-16432904D01*
X-5573857Y-16464809D01*
X-5431000Y-16496714D01*
X-5252428Y-16496714D01*
X-5109571Y-16464809D01*
X-5038142Y-16432904D01*
X-5002428Y-16401000D01*
X-4966714Y-16337190D01*
X-4966714Y-16273380D01*
X-5002428Y-16209571D01*
X-5038142Y-16177666D01*
X-5109571Y-16145761D01*
X-5252428Y-16113857D01*
X-5431000Y-16113857D01*
X-5573857Y-16145761D01*
X-5645285Y-16177666D01*
X-5681000Y-16209571D01*
X-5716714Y-16273380D01*
X10183285Y-12741476D02*
X9433285Y-12741476D01*
X9433285Y-12901000D01*
X9469000Y-12996714D01*
X9540428Y-13060523D01*
X9611857Y-13092428D01*
X9754714Y-13124333D01*
X9861857Y-13124333D01*
X10004714Y-13092428D01*
X10076142Y-13060523D01*
X10147571Y-12996714D01*
X10183285Y-12901000D01*
X10183285Y-12741476D01*
X9683285Y-13698619D02*
X10183285Y-13698619D01*
X9397571Y-13539095D02*
X9933285Y-13379571D01*
X9933285Y-13794333D01*
X9397571Y-14528142D02*
X10361857Y-13953857D01*
X9683285Y-15038619D02*
X10183285Y-15038619D01*
X9397571Y-14879095D02*
X9933285Y-14719571D01*
X9933285Y-15134333D01*
X5247571Y-12807428D02*
X5283285Y-12903142D01*
X5283285Y-13062666D01*
X5247571Y-13126476D01*
X5211857Y-13158380D01*
X5140428Y-13190285D01*
X5069000Y-13190285D01*
X4997571Y-13158380D01*
X4961857Y-13126476D01*
X4926142Y-13062666D01*
X4890428Y-12935047D01*
X4854714Y-12871238D01*
X4819000Y-12839333D01*
X4747571Y-12807428D01*
X4676142Y-12807428D01*
X4604714Y-12839333D01*
X4569000Y-12871238D01*
X4533285Y-12935047D01*
X4533285Y-13094571D01*
X4569000Y-13190285D01*
X5283285Y-13477428D02*
X4533285Y-13477428D01*
X4533285Y-13636952D01*
X4569000Y-13732666D01*
X4640428Y-13796476D01*
X4711857Y-13828380D01*
X4854714Y-13860285D01*
X4961857Y-13860285D01*
X5104714Y-13828380D01*
X5176142Y-13796476D01*
X5247571Y-13732666D01*
X5283285Y-13636952D01*
X5283285Y-13477428D01*
X5069000Y-14115523D02*
X5069000Y-14434571D01*
X5283285Y-14051714D02*
X4533285Y-14275047D01*
X5283285Y-14498380D01*
X4497571Y-15200285D02*
X5461857Y-14626000D01*
X5283285Y-15423619D02*
X4533285Y-15423619D01*
X4533285Y-15583142D01*
X4569000Y-15678857D01*
X4640428Y-15742666D01*
X4711857Y-15774571D01*
X4854714Y-15806476D01*
X4961857Y-15806476D01*
X5104714Y-15774571D01*
X5176142Y-15742666D01*
X5247571Y-15678857D01*
X5283285Y-15583142D01*
X5283285Y-15423619D01*
X5283285Y-16444571D02*
X5283285Y-16061714D01*
X5283285Y-16253142D02*
X4533285Y-16253142D01*
X4640428Y-16189333D01*
X4711857Y-16125523D01*
X4747571Y-16061714D01*
X4497571Y-17210285D02*
X5461857Y-16636000D01*
X4604714Y-17401714D02*
X4569000Y-17433619D01*
X4533285Y-17497428D01*
X4533285Y-17656952D01*
X4569000Y-17720761D01*
X4604714Y-17752666D01*
X4676142Y-17784571D01*
X4747571Y-17784571D01*
X4854714Y-17752666D01*
X5283285Y-17369809D01*
X5283285Y-17784571D01*
X7747571Y-12823380D02*
X7783285Y-12919095D01*
X7783285Y-13078619D01*
X7747571Y-13142428D01*
X7711857Y-13174333D01*
X7640428Y-13206238D01*
X7569000Y-13206238D01*
X7497571Y-13174333D01*
X7461857Y-13142428D01*
X7426142Y-13078619D01*
X7390428Y-12951000D01*
X7354714Y-12887190D01*
X7319000Y-12855285D01*
X7247571Y-12823380D01*
X7176142Y-12823380D01*
X7104714Y-12855285D01*
X7069000Y-12887190D01*
X7033285Y-12951000D01*
X7033285Y-13110523D01*
X7069000Y-13206238D01*
X7711857Y-13876238D02*
X7747571Y-13844333D01*
X7783285Y-13748619D01*
X7783285Y-13684809D01*
X7747571Y-13589095D01*
X7676142Y-13525285D01*
X7604714Y-13493380D01*
X7461857Y-13461476D01*
X7354714Y-13461476D01*
X7211857Y-13493380D01*
X7140428Y-13525285D01*
X7069000Y-13589095D01*
X7033285Y-13684809D01*
X7033285Y-13748619D01*
X7069000Y-13844333D01*
X7104714Y-13876238D01*
X7783285Y-14482428D02*
X7783285Y-14163380D01*
X7033285Y-14163380D01*
X6997571Y-15184333D02*
X7961857Y-14610047D01*
X7783285Y-15407666D02*
X7033285Y-15407666D01*
X7033285Y-15567190D01*
X7069000Y-15662904D01*
X7140428Y-15726714D01*
X7211857Y-15758619D01*
X7354714Y-15790523D01*
X7461857Y-15790523D01*
X7604714Y-15758619D01*
X7676142Y-15726714D01*
X7747571Y-15662904D01*
X7783285Y-15567190D01*
X7783285Y-15407666D01*
X7033285Y-16205285D02*
X7033285Y-16269095D01*
X7069000Y-16332904D01*
X7104714Y-16364809D01*
X7176142Y-16396714D01*
X7319000Y-16428619D01*
X7497571Y-16428619D01*
X7640428Y-16396714D01*
X7711857Y-16364809D01*
X7747571Y-16332904D01*
X7783285Y-16269095D01*
X7783285Y-16205285D01*
X7747571Y-16141476D01*
X7711857Y-16109571D01*
X7640428Y-16077666D01*
X7497571Y-16045761D01*
X7319000Y-16045761D01*
X7176142Y-16077666D01*
X7104714Y-16109571D01*
X7069000Y-16141476D01*
X7033285Y-16205285D01*
X6997571Y-17194333D02*
X7961857Y-16620047D01*
X7033285Y-17353857D02*
X7033285Y-17768619D01*
X7319000Y-17545285D01*
X7319000Y-17641000D01*
X7354714Y-17704809D01*
X7390428Y-17736714D01*
X7461857Y-17768619D01*
X7640428Y-17768619D01*
X7711857Y-17736714D01*
X7747571Y-17704809D01*
X7783285Y-17641000D01*
X7783285Y-17449571D01*
X7747571Y-17385761D01*
X7711857Y-17353857D01*
X12661857Y-13124333D02*
X12697571Y-13092428D01*
X12733285Y-12996714D01*
X12733285Y-12932904D01*
X12697571Y-12837190D01*
X12626142Y-12773380D01*
X12554714Y-12741476D01*
X12411857Y-12709571D01*
X12304714Y-12709571D01*
X12161857Y-12741476D01*
X12090428Y-12773380D01*
X12019000Y-12837190D01*
X11983285Y-12932904D01*
X11983285Y-12996714D01*
X12019000Y-13092428D01*
X12054714Y-13124333D01*
X11983285Y-13698619D02*
X11983285Y-13571000D01*
X12019000Y-13507190D01*
X12054714Y-13475285D01*
X12161857Y-13411476D01*
X12304714Y-13379571D01*
X12590428Y-13379571D01*
X12661857Y-13411476D01*
X12697571Y-13443380D01*
X12733285Y-13507190D01*
X12733285Y-13634809D01*
X12697571Y-13698619D01*
X12661857Y-13730523D01*
X12590428Y-13762428D01*
X12411857Y-13762428D01*
X12340428Y-13730523D01*
X12304714Y-13698619D01*
X12269000Y-13634809D01*
X12269000Y-13507190D01*
X12304714Y-13443380D01*
X12340428Y-13411476D01*
X12411857Y-13379571D01*
X11947571Y-14528142D02*
X12911857Y-13953857D01*
X11983285Y-15070523D02*
X11983285Y-14751476D01*
X12340428Y-14719571D01*
X12304714Y-14751476D01*
X12269000Y-14815285D01*
X12269000Y-14974809D01*
X12304714Y-15038619D01*
X12340428Y-15070523D01*
X12411857Y-15102428D01*
X12590428Y-15102428D01*
X12661857Y-15070523D01*
X12697571Y-15038619D01*
X12733285Y-14974809D01*
X12733285Y-14815285D01*
X12697571Y-14751476D01*
X12661857Y-14719571D01*
X22490428Y-12964809D02*
X22526142Y-13060523D01*
X22561857Y-13092428D01*
X22633285Y-13124333D01*
X22740428Y-13124333D01*
X22811857Y-13092428D01*
X22847571Y-13060523D01*
X22883285Y-12996714D01*
X22883285Y-12741476D01*
X22133285Y-12741476D01*
X22133285Y-12964809D01*
X22169000Y-13028619D01*
X22204714Y-13060523D01*
X22276142Y-13092428D01*
X22347571Y-13092428D01*
X22419000Y-13060523D01*
X22454714Y-13028619D01*
X22490428Y-12964809D01*
X22490428Y-12741476D01*
X22133285Y-13730523D02*
X22133285Y-13411476D01*
X22490428Y-13379571D01*
X22454714Y-13411476D01*
X22419000Y-13475285D01*
X22419000Y-13634809D01*
X22454714Y-13698619D01*
X22490428Y-13730523D01*
X22561857Y-13762428D01*
X22740428Y-13762428D01*
X22811857Y-13730523D01*
X22847571Y-13698619D01*
X22883285Y-13634809D01*
X22883285Y-13475285D01*
X22847571Y-13411476D01*
X22811857Y-13379571D01*
X22097571Y-14528142D02*
X23061857Y-13953857D01*
X22883285Y-14783380D02*
X22883285Y-14911000D01*
X22847571Y-14974809D01*
X22811857Y-15006714D01*
X22704714Y-15070523D01*
X22561857Y-15102428D01*
X22276142Y-15102428D01*
X22204714Y-15070523D01*
X22169000Y-15038619D01*
X22133285Y-14974809D01*
X22133285Y-14847190D01*
X22169000Y-14783380D01*
X22204714Y-14751476D01*
X22276142Y-14719571D01*
X22454714Y-14719571D01*
X22526142Y-14751476D01*
X22561857Y-14783380D01*
X22597571Y-14847190D01*
X22597571Y-14974809D01*
X22561857Y-15038619D01*
X22526142Y-15070523D01*
X22454714Y-15102428D01*
X-2416714Y-12907428D02*
X-3166714Y-12907428D01*
X-3166714Y-13066952D01*
X-3131000Y-13162666D01*
X-3059571Y-13226476D01*
X-2988142Y-13258380D01*
X-2845285Y-13290285D01*
X-2738142Y-13290285D01*
X-2595285Y-13258380D01*
X-2523857Y-13226476D01*
X-2452428Y-13162666D01*
X-2416714Y-13066952D01*
X-2416714Y-12907428D01*
X-3095285Y-13545523D02*
X-3131000Y-13577428D01*
X-3166714Y-13641238D01*
X-3166714Y-13800761D01*
X-3131000Y-13864571D01*
X-3095285Y-13896476D01*
X-3023857Y-13928380D01*
X-2952428Y-13928380D01*
X-2845285Y-13896476D01*
X-2416714Y-13513619D01*
X-2416714Y-13928380D01*
X-3202428Y-14694095D02*
X-2238142Y-14119809D01*
X-2416714Y-15300285D02*
X-2773857Y-15076952D01*
X-2416714Y-14917428D02*
X-3166714Y-14917428D01*
X-3166714Y-15172666D01*
X-3131000Y-15236476D01*
X-3095285Y-15268380D01*
X-3023857Y-15300285D01*
X-2916714Y-15300285D01*
X-2845285Y-15268380D01*
X-2809571Y-15236476D01*
X-2773857Y-15172666D01*
X-2773857Y-14917428D01*
X-3166714Y-15523619D02*
X-2416714Y-15970285D01*
X-3166714Y-15970285D02*
X-2416714Y-15523619D01*
X-2416714Y-16576476D02*
X-2416714Y-16193619D01*
X-2416714Y-16385047D02*
X-3166714Y-16385047D01*
X-3059571Y-16321238D01*
X-2988142Y-16257428D01*
X-2952428Y-16193619D01*
X19990428Y-12964809D02*
X20026142Y-13060523D01*
X20061857Y-13092428D01*
X20133285Y-13124333D01*
X20240428Y-13124333D01*
X20311857Y-13092428D01*
X20347571Y-13060523D01*
X20383285Y-12996714D01*
X20383285Y-12741476D01*
X19633285Y-12741476D01*
X19633285Y-12964809D01*
X19669000Y-13028619D01*
X19704714Y-13060523D01*
X19776142Y-13092428D01*
X19847571Y-13092428D01*
X19919000Y-13060523D01*
X19954714Y-13028619D01*
X19990428Y-12964809D01*
X19990428Y-12741476D01*
X19883285Y-13698619D02*
X20383285Y-13698619D01*
X19597571Y-13539095D02*
X20133285Y-13379571D01*
X20133285Y-13794333D01*
X19597571Y-14528142D02*
X20561857Y-13953857D01*
X19954714Y-14847190D02*
X19919000Y-14783380D01*
X19883285Y-14751476D01*
X19811857Y-14719571D01*
X19776142Y-14719571D01*
X19704714Y-14751476D01*
X19669000Y-14783380D01*
X19633285Y-14847190D01*
X19633285Y-14974809D01*
X19669000Y-15038619D01*
X19704714Y-15070523D01*
X19776142Y-15102428D01*
X19811857Y-15102428D01*
X19883285Y-15070523D01*
X19919000Y-15038619D01*
X19954714Y-14974809D01*
X19954714Y-14847190D01*
X19990428Y-14783380D01*
X20026142Y-14751476D01*
X20097571Y-14719571D01*
X20240428Y-14719571D01*
X20311857Y-14751476D01*
X20347571Y-14783380D01*
X20383285Y-14847190D01*
X20383285Y-14974809D01*
X20347571Y-15038619D01*
X20311857Y-15070523D01*
X20240428Y-15102428D01*
X20097571Y-15102428D01*
X20026142Y-15070523D01*
X19990428Y-15038619D01*
X19954714Y-14974809D01*
D20*
X220134047Y-38152380D02*
X220610238Y-38152380D01*
X220610238Y-37152380D01*
X219800714Y-37628571D02*
X219467380Y-37628571D01*
X219324523Y-38152380D02*
X219800714Y-38152380D01*
X219800714Y-37152380D01*
X219324523Y-37152380D01*
X218895952Y-38152380D02*
X218895952Y-37152380D01*
X218657857Y-37152380D01*
X218515000Y-37200000D01*
X218419761Y-37295238D01*
X218372142Y-37390476D01*
X218324523Y-37580952D01*
X218324523Y-37723809D01*
X218372142Y-37914285D01*
X218419761Y-38009523D01*
X218515000Y-38104761D01*
X218657857Y-38152380D01*
X218895952Y-38152380D01*
X217372142Y-38152380D02*
X217943571Y-38152380D01*
X217657857Y-38152380D02*
X217657857Y-37152380D01*
X217753095Y-37295238D01*
X217848333Y-37390476D01*
X217943571Y-37438095D01*
D22*
X214600285Y-31635000D02*
X214600285Y-31777857D01*
X214636000Y-31849285D01*
X214707428Y-31920714D01*
X214850285Y-31956428D01*
X215100285Y-31956428D01*
X215243142Y-31920714D01*
X215314571Y-31849285D01*
X215350285Y-31777857D01*
X215350285Y-31635000D01*
X215314571Y-31563571D01*
X215243142Y-31492142D01*
X215100285Y-31456428D01*
X214850285Y-31456428D01*
X214707428Y-31492142D01*
X214636000Y-31563571D01*
X214600285Y-31635000D01*
X214600285Y-32277857D02*
X215207428Y-32277857D01*
X215278857Y-32313571D01*
X215314571Y-32349285D01*
X215350285Y-32420714D01*
X215350285Y-32563571D01*
X215314571Y-32635000D01*
X215278857Y-32670714D01*
X215207428Y-32706428D01*
X214600285Y-32706428D01*
X214600285Y-32956428D02*
X214600285Y-33385000D01*
X215350285Y-33170714D02*
X214600285Y-33170714D01*
X222799714Y-36587857D02*
X223549714Y-36587857D01*
X222799714Y-36230714D02*
X223549714Y-36230714D01*
X222799714Y-35802142D01*
X223549714Y-35802142D01*
D20*
X143934047Y-38152380D02*
X144410238Y-38152380D01*
X144410238Y-37152380D01*
X143600714Y-37628571D02*
X143267380Y-37628571D01*
X143124523Y-38152380D02*
X143600714Y-38152380D01*
X143600714Y-37152380D01*
X143124523Y-37152380D01*
X142695952Y-38152380D02*
X142695952Y-37152380D01*
X142457857Y-37152380D01*
X142315000Y-37200000D01*
X142219761Y-37295238D01*
X142172142Y-37390476D01*
X142124523Y-37580952D01*
X142124523Y-37723809D01*
X142172142Y-37914285D01*
X142219761Y-38009523D01*
X142315000Y-38104761D01*
X142457857Y-38152380D01*
X142695952Y-38152380D01*
X141743571Y-37247619D02*
X141695952Y-37200000D01*
X141600714Y-37152380D01*
X141362619Y-37152380D01*
X141267380Y-37200000D01*
X141219761Y-37247619D01*
X141172142Y-37342857D01*
X141172142Y-37438095D01*
X141219761Y-37580952D01*
X141791190Y-38152380D01*
X141172142Y-38152380D01*
D22*
X146599714Y-36587857D02*
X147349714Y-36587857D01*
X146599714Y-36230714D02*
X147349714Y-36230714D01*
X146599714Y-35802142D01*
X147349714Y-35802142D01*
X139221714Y-33135000D02*
X139221714Y-32992142D01*
X139186000Y-32920714D01*
X139114571Y-32849285D01*
X138971714Y-32813571D01*
X138721714Y-32813571D01*
X138578857Y-32849285D01*
X138507428Y-32920714D01*
X138471714Y-32992142D01*
X138471714Y-33135000D01*
X138507428Y-33206428D01*
X138578857Y-33277857D01*
X138721714Y-33313571D01*
X138971714Y-33313571D01*
X139114571Y-33277857D01*
X139186000Y-33206428D01*
X139221714Y-33135000D01*
X139221714Y-32492142D02*
X138614571Y-32492142D01*
X138543142Y-32456428D01*
X138507428Y-32420714D01*
X138471714Y-32349285D01*
X138471714Y-32206428D01*
X138507428Y-32135000D01*
X138543142Y-32099285D01*
X138614571Y-32063571D01*
X139221714Y-32063571D01*
X139221714Y-31813571D02*
X139221714Y-31385000D01*
X138471714Y-31599285D02*
X139221714Y-31599285D01*
D20*
X86784047Y-38152380D02*
X87260238Y-38152380D01*
X87260238Y-37152380D01*
X86450714Y-37628571D02*
X86117380Y-37628571D01*
X85974523Y-38152380D02*
X86450714Y-38152380D01*
X86450714Y-37152380D01*
X85974523Y-37152380D01*
X85545952Y-38152380D02*
X85545952Y-37152380D01*
X85307857Y-37152380D01*
X85165000Y-37200000D01*
X85069761Y-37295238D01*
X85022142Y-37390476D01*
X84974523Y-37580952D01*
X84974523Y-37723809D01*
X85022142Y-37914285D01*
X85069761Y-38009523D01*
X85165000Y-38104761D01*
X85307857Y-38152380D01*
X85545952Y-38152380D01*
X84641190Y-37152380D02*
X84022142Y-37152380D01*
X84355476Y-37533333D01*
X84212619Y-37533333D01*
X84117380Y-37580952D01*
X84069761Y-37628571D01*
X84022142Y-37723809D01*
X84022142Y-37961904D01*
X84069761Y-38057142D01*
X84117380Y-38104761D01*
X84212619Y-38152380D01*
X84498333Y-38152380D01*
X84593571Y-38104761D01*
X84641190Y-38057142D01*
D22*
X82071714Y-33135000D02*
X82071714Y-32992142D01*
X82036000Y-32920714D01*
X81964571Y-32849285D01*
X81821714Y-32813571D01*
X81571714Y-32813571D01*
X81428857Y-32849285D01*
X81357428Y-32920714D01*
X81321714Y-32992142D01*
X81321714Y-33135000D01*
X81357428Y-33206428D01*
X81428857Y-33277857D01*
X81571714Y-33313571D01*
X81821714Y-33313571D01*
X81964571Y-33277857D01*
X82036000Y-33206428D01*
X82071714Y-33135000D01*
X82071714Y-32492142D02*
X81464571Y-32492142D01*
X81393142Y-32456428D01*
X81357428Y-32420714D01*
X81321714Y-32349285D01*
X81321714Y-32206428D01*
X81357428Y-32135000D01*
X81393142Y-32099285D01*
X81464571Y-32063571D01*
X82071714Y-32063571D01*
X82071714Y-31813571D02*
X82071714Y-31385000D01*
X81321714Y-31599285D02*
X82071714Y-31599285D01*
X89449714Y-36587857D02*
X90199714Y-36587857D01*
X89449714Y-36230714D02*
X90199714Y-36230714D01*
X89449714Y-35802142D01*
X90199714Y-35802142D01*
D20*
X29634047Y-38152380D02*
X30110238Y-38152380D01*
X30110238Y-37152380D01*
X29300714Y-37628571D02*
X28967380Y-37628571D01*
X28824523Y-38152380D02*
X29300714Y-38152380D01*
X29300714Y-37152380D01*
X28824523Y-37152380D01*
X28395952Y-38152380D02*
X28395952Y-37152380D01*
X28157857Y-37152380D01*
X28015000Y-37200000D01*
X27919761Y-37295238D01*
X27872142Y-37390476D01*
X27824523Y-37580952D01*
X27824523Y-37723809D01*
X27872142Y-37914285D01*
X27919761Y-38009523D01*
X28015000Y-38104761D01*
X28157857Y-38152380D01*
X28395952Y-38152380D01*
X26967380Y-37485714D02*
X26967380Y-38152380D01*
X27205476Y-37104761D02*
X27443571Y-37819047D01*
X26824523Y-37819047D01*
D22*
X32299714Y-36587857D02*
X33049714Y-36587857D01*
X32299714Y-36230714D02*
X33049714Y-36230714D01*
X32299714Y-35802142D01*
X33049714Y-35802142D01*
X24921714Y-33135000D02*
X24921714Y-32992142D01*
X24886000Y-32920714D01*
X24814571Y-32849285D01*
X24671714Y-32813571D01*
X24421714Y-32813571D01*
X24278857Y-32849285D01*
X24207428Y-32920714D01*
X24171714Y-32992142D01*
X24171714Y-33135000D01*
X24207428Y-33206428D01*
X24278857Y-33277857D01*
X24421714Y-33313571D01*
X24671714Y-33313571D01*
X24814571Y-33277857D01*
X24886000Y-33206428D01*
X24921714Y-33135000D01*
X24921714Y-32492142D02*
X24314571Y-32492142D01*
X24243142Y-32456428D01*
X24207428Y-32420714D01*
X24171714Y-32349285D01*
X24171714Y-32206428D01*
X24207428Y-32135000D01*
X24243142Y-32099285D01*
X24314571Y-32063571D01*
X24921714Y-32063571D01*
X24921714Y-31813571D02*
X24921714Y-31385000D01*
X24171714Y-31599285D02*
X24921714Y-31599285D01*
D20*
X15029047Y-7672380D02*
X15505238Y-7672380D01*
X15505238Y-6672380D01*
X14695714Y-7148571D02*
X14362380Y-7148571D01*
X14219523Y-7672380D02*
X14695714Y-7672380D01*
X14695714Y-6672380D01*
X14219523Y-6672380D01*
X13790952Y-7672380D02*
X13790952Y-6672380D01*
X13552857Y-6672380D01*
X13410000Y-6720000D01*
X13314761Y-6815238D01*
X13267142Y-6910476D01*
X13219523Y-7100952D01*
X13219523Y-7243809D01*
X13267142Y-7434285D01*
X13314761Y-7529523D01*
X13410000Y-7624761D01*
X13552857Y-7672380D01*
X13790952Y-7672380D01*
X12314761Y-6672380D02*
X12790952Y-6672380D01*
X12838571Y-7148571D01*
X12790952Y-7100952D01*
X12695714Y-7053333D01*
X12457619Y-7053333D01*
X12362380Y-7100952D01*
X12314761Y-7148571D01*
X12267142Y-7243809D01*
X12267142Y-7481904D01*
X12314761Y-7577142D01*
X12362380Y-7624761D01*
X12457619Y-7672380D01*
X12695714Y-7672380D01*
X12790952Y-7624761D01*
X12838571Y-7577142D01*
D22*
X9495285Y-1155000D02*
X9495285Y-1297857D01*
X9531000Y-1369285D01*
X9602428Y-1440714D01*
X9745285Y-1476428D01*
X9995285Y-1476428D01*
X10138142Y-1440714D01*
X10209571Y-1369285D01*
X10245285Y-1297857D01*
X10245285Y-1155000D01*
X10209571Y-1083571D01*
X10138142Y-1012142D01*
X9995285Y-976428D01*
X9745285Y-976428D01*
X9602428Y-1012142D01*
X9531000Y-1083571D01*
X9495285Y-1155000D01*
X9495285Y-1797857D02*
X10102428Y-1797857D01*
X10173857Y-1833571D01*
X10209571Y-1869285D01*
X10245285Y-1940714D01*
X10245285Y-2083571D01*
X10209571Y-2155000D01*
X10173857Y-2190714D01*
X10102428Y-2226428D01*
X9495285Y-2226428D01*
X9495285Y-2476428D02*
X9495285Y-2905000D01*
X10245285Y-2690714D02*
X9495285Y-2690714D01*
X18373285Y-5322142D02*
X17623285Y-5322142D01*
X18373285Y-5679285D02*
X17623285Y-5679285D01*
X18373285Y-6107857D01*
X17623285Y-6107857D01*
D20*
X220134047Y-452380D02*
X220610238Y-452380D01*
X220610238Y547619D01*
X219800714Y71428D02*
X219467380Y71428D01*
X219324523Y-452380D02*
X219800714Y-452380D01*
X219800714Y547619D01*
X219324523Y547619D01*
X218895952Y-452380D02*
X218895952Y547619D01*
X218657857Y547619D01*
X218515000Y500000D01*
X218419761Y404761D01*
X218372142Y309523D01*
X218324523Y119047D01*
X218324523Y-23809D01*
X218372142Y-214285D01*
X218419761Y-309523D01*
X218515000Y-404761D01*
X218657857Y-452380D01*
X218895952Y-452380D01*
X217467380Y547619D02*
X217657857Y547619D01*
X217753095Y500000D01*
X217800714Y452380D01*
X217895952Y309523D01*
X217943571Y119047D01*
X217943571Y-261904D01*
X217895952Y-357142D01*
X217848333Y-404761D01*
X217753095Y-452380D01*
X217562619Y-452380D01*
X217467380Y-404761D01*
X217419761Y-357142D01*
X217372142Y-261904D01*
X217372142Y-23809D01*
X217419761Y71428D01*
X217467380Y119047D01*
X217562619Y166666D01*
X217753095Y166666D01*
X217848333Y119047D01*
X217895952Y71428D01*
X217943571Y-23809D01*
D22*
X222799714Y-6107857D02*
X223549714Y-6107857D01*
X222799714Y-5750714D02*
X223549714Y-5750714D01*
X222799714Y-5322142D01*
X223549714Y-5322142D01*
X215421714Y-2655000D02*
X215421714Y-2512142D01*
X215386000Y-2440714D01*
X215314571Y-2369285D01*
X215171714Y-2333571D01*
X214921714Y-2333571D01*
X214778857Y-2369285D01*
X214707428Y-2440714D01*
X214671714Y-2512142D01*
X214671714Y-2655000D01*
X214707428Y-2726428D01*
X214778857Y-2797857D01*
X214921714Y-2833571D01*
X215171714Y-2833571D01*
X215314571Y-2797857D01*
X215386000Y-2726428D01*
X215421714Y-2655000D01*
X215421714Y-2012142D02*
X214814571Y-2012142D01*
X214743142Y-1976428D01*
X214707428Y-1940714D01*
X214671714Y-1869285D01*
X214671714Y-1726428D01*
X214707428Y-1655000D01*
X214743142Y-1619285D01*
X214814571Y-1583571D01*
X215421714Y-1583571D01*
X215421714Y-1333571D02*
X215421714Y-905000D01*
X214671714Y-1119285D02*
X215421714Y-1119285D01*
M02*
