M48
; DRILL file {KiCad (5.1.9-0-10_14)} date Saturday, August 28, 2021 at 10:47:04 PM
; FORMAT={-:-/ absolute / metric / decimal}
; #@! TF.CreationDate,2021-08-28T22:47:04+09:00
; #@! TF.GenerationSoftware,Kicad,Pcbnew,(5.1.9-0-10_14)
; #@! TF.FileFunction,Plated,1,2,PTH
FMAT,2
METRIC
T1C0.400
T2C0.813
T3C1.000
T4C1.300
T5C1.499
%
G90
G05
T1
X-6.985Y-39.37
X-4.428Y-24.13
X-2.07Y-25.201
X0.0Y-36.195
X7.036Y-4.535
X10.707Y-23.593
X11.304Y-3.81
X14.514Y-28.875
X14.605Y5.08
X15.512Y-22.125
X16.735Y-3.81
X17.445Y-7.199
X19.05Y-17.78
X20.66Y-40.767
X20.955Y-3.175
X22.109Y7.56
X24.13Y-20.955
X24.765Y-28.575
X26.035Y-2.54
X26.035Y-40.64
X33.915Y-28.546
X35.203Y-7.768
X35.717Y-31.924
X36.83Y-0.635
X44.45Y-34.925
X46.355Y-27.305
X46.546Y-11.344
X50.886Y-11.344
X57.15Y0.635
X60.96Y-24.765
X64.135Y-2.54
X66.675Y-34.925
X67.945Y-42.545
X73.025Y-2.54
X76.835Y-43.815
X80.01Y-3.81
X80.709Y-32.174
X81.088Y-29.85
X85.71Y-8.25
X85.725Y-27.305
X86.36Y-3.81
X90.17Y-14.605
X97.173Y-46.194
X98.425Y-22.225
X106.045Y-38.1
X107.479Y-29.162
X117.475Y-35.56
X125.095Y-27.305
X125.73Y-38.1
X129.1Y-46.501
X130.175Y-20.955
X131.599Y-33.437
X141.605Y-6.35
X151.765Y-34.29
X151.939Y-27.475
X153.035Y-44.45
X161.925Y-33.655
X187.221Y-33.02
X191.77Y-43.815
X196.215Y-24.13
X196.978Y8.027
X200.025Y-31.75
X206.507Y-32.653
X208.915Y-13.97
X210.185Y-43.18
X213.995Y-24.13
X218.44Y-21.59
T2
X-5.334Y-11.185
X-5.334Y-26.405
X-2.794Y-11.185
X-2.794Y-26.405
X-0.254Y-11.185
X-0.254Y-26.405
X1.525Y-29.85
X1.763Y-8.25
X2.286Y-11.185
X2.286Y-26.405
X4.826Y-11.185
X4.826Y-26.405
X7.366Y-11.185
X7.366Y-26.405
X7.525Y-29.85
X7.763Y-8.25
X9.906Y-11.185
X9.906Y-26.405
X11.525Y-29.85
X12.446Y-11.185
X12.446Y-26.405
X14.986Y-11.185
X14.986Y-26.405
X17.525Y-29.85
X17.526Y-11.185
X17.526Y-26.405
X20.066Y-11.185
X20.066Y-26.405
X22.606Y-11.185
X22.606Y-26.405
X25.575Y-8.25
X31.575Y-8.25
X35.097Y-27.3
X35.1Y-29.85
X41.097Y-27.3
X41.1Y-29.85
X44.625Y-8.25
X50.625Y-8.25
X54.148Y-27.3
X54.15Y-29.85
X60.147Y-27.3
X60.15Y-29.85
X63.675Y-8.25
X69.675Y-8.25
X73.197Y-27.3
X73.2Y-29.85
X79.197Y-27.3
X79.2Y-29.85
X82.725Y-8.25
X88.725Y-8.25
X92.248Y-27.3
X92.25Y-29.85
X98.248Y-27.3
X98.25Y-29.85
X101.775Y-8.25
X107.775Y-8.25
X111.298Y-27.3
X111.3Y-29.85
X117.298Y-27.3
X117.3Y-29.85
X120.825Y-29.85
X126.825Y-29.85
X139.218Y-6.525
X139.218Y-12.525
X149.4Y-8.25
X149.4Y-27.3
X149.4Y-29.85
X155.4Y-8.25
X155.4Y-27.3
X155.4Y-29.85
X168.45Y-8.25
X168.45Y-27.3
X168.45Y-29.85
X174.45Y-8.25
X174.45Y-27.3
X174.45Y-29.85
X187.5Y-8.25
X187.5Y-27.3
X187.5Y-29.85
X193.5Y-8.25
X193.5Y-27.3
X193.5Y-29.85
X206.55Y-8.25
X206.55Y-27.3
X206.55Y-29.85
X212.55Y-8.25
X212.55Y-27.3
X212.55Y-29.85
X225.6Y-8.25
X225.6Y-27.3
X225.6Y-29.85
X231.6Y-8.25
X231.6Y-27.3
X231.6Y-29.85
T3
X130.85Y-31.1
X130.85Y-45.6
X133.35Y-45.6
X135.85Y-31.1
X135.85Y-45.6
T4
X57.15Y-3.1
X57.15Y-9.6
T5
X2.223Y-5.08
X4.604Y-24.13
X5.715Y-35.56
X8.573Y-2.54
X10.954Y-21.59
X12.065Y-33.02
X26.035Y-5.08
X30.797Y-24.13
X32.385Y-2.54
X34.29Y-35.56
X37.148Y-21.59
X40.64Y-33.02
X45.085Y-5.08
X49.847Y-24.13
X51.435Y-2.54
X53.34Y-35.56
X56.197Y-21.59
X59.69Y-33.02
X64.135Y-5.08
X68.897Y-24.13
X70.485Y-2.54
X72.39Y-35.56
X75.248Y-21.59
X78.74Y-33.02
X83.185Y-5.08
X87.947Y-24.13
X89.535Y-2.54
X91.44Y-35.56
X94.297Y-21.59
X97.79Y-33.02
X102.235Y-5.08
X106.998Y-24.13
X108.585Y-2.54
X110.49Y-35.56
X113.348Y-21.59
X116.84Y-33.02
X129.54Y-35.56
X133.508Y-5.715
X135.89Y-33.02
X136.048Y-12.065
X148.59Y-35.56
X149.86Y-5.08
X149.86Y-24.13
X154.94Y-33.02
X156.21Y-2.54
X156.21Y-21.59
X167.64Y-35.56
X168.91Y-5.08
X168.91Y-24.13
X173.99Y-33.02
X175.26Y-2.54
X175.26Y-21.59
X186.69Y-35.56
X187.96Y-5.08
X187.96Y-24.13
X193.04Y-33.02
X194.31Y-2.54
X194.31Y-21.59
X205.74Y-35.56
X207.01Y-5.08
X207.01Y-24.13
X212.09Y-33.02
X213.36Y-2.54
X213.36Y-21.59
X224.79Y-35.56
X226.06Y-5.08
X226.06Y-24.13
X231.14Y-33.02
X232.41Y-2.54
X232.41Y-21.59
T0
M30
